<?xml version="1.0" encoding="UTF-8"?>
<svg xmlns="http://www.w3.org/2000/svg" version="1.1" viewBox="0 0 1200 1200">
  <defs>
    <style>
      .cls-1, .cls-2 {
        fill: #fff;
      }

      .cls-3, .cls-4 {
        fill: #78c044;
      }

      .cls-2, .cls-4 {
        fill-rule: evenodd;
      }
    </style>
  </defs>
  <!-- Generator: Adobe Illustrator 28.7.1, SVG Export Plug-In . SVG Version: 1.2.0 Build 142)  -->
  <g>
    <g id="Layer_1">
      <g>
        <path class="cls-4" d="M418.16,410.3c-3.41,0-6.8-.3-10.07-.89-9.9-1.79-18.8-6.21-26.44-13.12-10.86-9.83-18.95-24.54-24.04-43.73l-.45-1.69,1.61-.67c2.94-1.22,13.52-5.41,26.19-7.93,4.46-.89,11.33-1.94,18.81-1.94,22.83,0,35.43,9.64,35.48,27.15.03,9.36-5.3,19.47-13.91,24.02,3.67-1.13,7.1-2.99,10.09-5.49,4.12-3.45,7.11-7.94,8.89-13.33l.98-2.98,2.29,2.15c5.09,4.78,11.4,8.02,18.25,9.35l2.78.54-1.45,2.44c-1.95,3.29-4.25,6.36-6.84,9.12-1.19,1.26-2.44,2.47-3.73,3.58-6.92,6-19.98,12.67-35.86,13.35-.86.04-1.72.06-2.59.06Z"/>
        <path class="cls-3" d="M415.03,530.48c-1.41,0-2.78-.31-4.05-.91l-8.2-3.89c-16.76-7.21-36.99-24.22-49.11-41.35-15.43-21.8-22.42-48.31-19.17-72.73.34-2.59,1.77-4.95,3.91-6.47,1.61-1.14,3.5-1.74,5.47-1.74.65,0,1.31.07,1.95.2,24.11,5.06,46.79,20.46,62.22,42.25,2.21,3.12,4.27,6.37,6.13,9.66-1.7-4.48-4.24-9.31-7.99-14.11l-.42-.54v-.68c-.08-9.85-.14-20.14-.19-30.27v-2.38s2.34.4,2.34.4c3.74.64,7.62.97,11.52.97.99,0,1.99-.02,2.98-.06l2.08-.09v2.08c.19,38.29.47,65.05.86,79.54.07,2.53-.85,4.93-2.59,6.76-1.74,1.83-4.09,2.88-6.61,2.95-.06,0-.15,0-.25,0-4.04,0-7.69-2.65-8.97-6.47-.42-.71-.75-1.47-.98-2.27-.52-1.83-1.08-4.03-1.67-6.32-1.68-6.58-3.99-15.59-6.33-19.78-1.63-2.9-3.42-5.75-5.34-8.45-10.31-14.56-24.41-25.67-39.94-31.53.36,16.59,6.15,33.59,16.46,48.15,10.19,14.39,27.56,29.1,41.31,34.97l.3.14,4.31,2.05,4.58-2.17c13.78-5.89,31.16-20.59,41.34-34.98,10.32-14.59,16.12-31.61,16.46-48.23-13.62,5.05-24.57,14.15-35.2,29.17-1.77,2.5-4.66,3.99-7.73,3.99-1.96,0-3.85-.6-5.46-1.74-2.06-1.46-3.43-3.63-3.86-6.13-.42-2.49.14-5,1.6-7.06,15.96-22.54,33.69-34.82,57.48-39.81.64-.13,1.29-.2,1.94-.2,1.97,0,3.86.6,5.47,1.74,2.14,1.52,3.57,3.88,3.91,6.48,3.25,24.42-3.74,50.93-19.17,72.73-12.13,17.12-32.35,34.14-49.18,41.38l-8.13,3.86c-1.28.61-2.64.91-4.06.91Z"/>
      </g>
      <path class="cls-3" d="M499.25,459.79c-1.81,146.51-141.29,152.63-222.26-3.86v67.58h-21.77v-115.67h23.13c24.27,56.47,74.62,151.05,149.69,140.61,25.21-3.51,38.84-26.24,45.1-52.19,2.61-3.01,5.04-6.08,7.21-9.14,9.06-12.8,15.33-27.17,18.49-41.85.31,4.8.45,9.63.41,14.51Z"/>
      <g>
        <path class="cls-3" d="M520.67,660.19c-.92,0-2.99.49-6.23,1.48-3.24.98-6.3,2.27-9.2,3.82-2.91,1.56-4.36,3.16-4.36,4.79,0,.61.32,1.28.96,2.01.63.73,1.28,2.83,1.94,6.3.31,26.52.47,57.89.47,94.12-3.35-9.24-8.68-23.26-16.03-42.08-13.37-34.25-20.32-52.85-20.85-55.8,0-1.1-.66-1.78-1.98-2.05-3.7-1.01-7.76-1.52-12.21-1.52-2.94,0-5.54.25-7.78.73-2.77.53-4.15,1.32-4.15,2.37,0,.4.2.9.62,1.52.41.61.92,1.31,1.52,2.08.59.77,1.19,1.57,1.81,2.41l.07,7.72c.13,6.29.19,13.98.19,23.09,0,18.2-.72,35.02-2.18,50.45-1.32,13.86-3.69,25.68-7.12,35.48-.22.61-.68,1.15-1.39,1.59-.92.75-1.38,1.6-1.38,2.57,0,.75,1.25,1.71,3.76,2.9,2.5,1.19,5.26,2.26,8.28,3.2,3,.95,5.24,1.42,6.69,1.42,2.81,0,4.79-3.32,5.94-9.96.53-2.86.86-5.94.99-9.24.26-6.51.54-21.08.85-43.73l.4-23.02c6.82,14.65,13.48,28.43,19.99,41.36,4.97,9.81,8.27,16.6,9.9,20.38.53,1.36,2.09,2.42,4.68,3.17,3.08.79,6.27,1.74,9.57,2.84,5.75,1.98,9.49,2.97,11.2,2.97.71,0,1.22-.24,1.55-.69.33-.47.49-.85.49-1.16v-3.63c0-27.84,1.46-56.74,4.36-86.73,1.27-12.27,1.91-22.12,1.91-29.55l.06-3.37c0-1.84-.09-3.56-.26-5.14-.26-2.07-1.29-3.1-3.1-3.1Z"/>
        <path class="cls-3" d="M595.59,796.26c-.09,0-.13-.04-.13-.13-4.26-4.27-6.67-9.43-7.22-15.51-.55-6.07-.83-10.77-.83-14.11,0-6.16.48-12.66,1.45-19.52,1.49-10.64,3.49-20.58,6.01-29.82.13-.35.19-.66.19-.92,0-.18-.04-.37-.1-.59-.07-.22-.3-.48-.69-.79-.4-.31-1.58-.87-3.56-1.69-1.98-.82-4-1.62-6.08-2.41-2.06-.79-3.34-1.19-3.82-1.19-.75,0-1.43,1.55-2.05,4.68l-.99,5.21c-.66-2.24-1.57-4.42-2.73-6.52-1.17-2.12-2.64-3.85-4.43-5.22-1.78-1.36-3.94-2.05-6.5-2.05-4.61,0-8.83,1.75-12.66,5.25-3.82,3.49-7.12,8.08-9.9,13.75-2.77,5.67-4.96,11.92-6.59,18.76-1.62,6.83-2.54,12.32-2.73,16.46-.2,4.14-.3,6.93-.3,8.38,0,12.57,2.44,21.96,7.32,28.16,2.77,3.57,6.46,5.35,11.07,5.35,3.17,0,5.83-1.25,7.98-3.73,2.16-2.48,4.03-5.68,5.61-9.6,1.45-3.6,3.51-9.45,6.2-17.54,0,8.36,1.57,15.59,4.72,21.71,3.14,6.11,6.78,9.17,10.91,9.17,1.41,0,2.95-.25,4.62-.76,1.67-.5,3.12-1.09,4.36-1.75,1.23-.66,1.84-1.2,1.84-1.65,0-.48-.33-.94-.99-1.38ZM565.55,770.1c-2.09,6.66-4.36,12.27-6.83,16.82-2.46,4.55-5.08,6.82-7.84,6.82-2.07,0-3.2-1.66-3.4-4.98-.2-3.32-.3-5.75-.3-7.29,0-11.04,1.8-23.66,5.41-37.85,1.93-7.66,4.21-14.11,6.82-19.36,2.62-5.25,5.33-7.89,8.15-7.89,1.8,0,2.75.68,2.84,2.05.09,1.36.13,2.31.13,2.84,0,3.83-1.21,8.84-3.63,15.04-1.23,3.34-2.27,5.59-3.1,6.76-.83,1.16-1.26,2.1-1.26,2.8,0,1.41,2.92,2.77,8.77,4.09-1.76,6.77-3.68,13.49-5.77,20.14Z"/>
        <path class="cls-3" d="M638.08,705.69c-2.38,0-4.47.85-6.27,2.55-1.8,1.69-3.36,3.9-4.68,6.63-1.32,2.72-2.42,5.72-3.3,8.97,0-17.28-.21-30.5-.62-39.67-.42-9.17-1.03-15.46-1.82-18.9-.79-3.43-1.77-5.15-2.97-5.15-1.84,0-4.04.74-6.59,2.21-2.55,1.47-4.85,2.99-6.89,4.58-2.05,1.58-3.33,2.68-3.85,3.29-.22.26-.33.61-.33,1.05,0,.93.35,1.96,1.05,3.1,2.86,4.31,5.19,13.87,7,28.7,1.01,8.09,1.51,18.07,1.51,29.94,0,24.67-1.95,44.3-5.87,58.9-.09.26-.13.55-.13.86,0,2.81,2.02,5.16,6.07,7.05,2.72,1.33,6.95,1.98,12.66,1.98.92,0,1.48-.19,1.65-.56.18-.38.26-.81.26-1.29l-.13-1.25c-.26-1.59-.47-3.71-.6-6.4,4.36,6.33,10.93,9.5,19.72,9.5,4.4,0,8.34-1.75,11.85-5.24,3.49-3.5,6.42-8.1,8.77-13.82,2.34-5.72,3.9-11.29,4.65-16.72.75-5.44,1.12-10.19,1.12-14.29,0-10.28-1.65-19.27-4.95-26.97-5.54-12.71-14.64-19.06-27.3-19.06ZM648.5,786.56c-1.33,5.44-3.21,8.18-5.67,8.18-3.08,0-5.38-1.16-6.89-3.46-1.52-2.31-2.47-4.8-2.84-7.49-.38-2.68-.56-5.03-.56-7.06,0-3.73.32-6.52.98-8.38.35-1.05.54-1.89.54-2.5v-.13c0-.53-.23-.9-.67-1.12-.48-.31-1.82-.61-4.02-.92-1.84-.26-3.03-.4-3.56-.4v-3.3c0-18.11,1.95-31.22,5.87-39.3,2.12-4.22,4.71-6.34,7.79-6.34,2.72,0,4.98,2.74,6.75,8.22,1.78,5.47,3.01,11.67,3.7,18.6.69,6.93,1.03,13.37,1.03,19.35,0,10.82-.82,19.5-2.44,26.06Z"/>
        <path class="cls-3" d="M725.93,701.14c.7-1.32,3.08-2.66,7.12-4.02,1.81-.53,3.38-1.12,4.72-1.78,1.34-.66,2.01-1.52,2.01-2.57,0-.35-.2-.72-.62-1.12-.42-.4-1.06-.59-1.95-.59h-1.58c-8.18,0-18.09-.47-29.74-1.39,1.84-9.76,3.12-15.96,3.82-18.6.22-1.01.33-1.71.33-2.11,0-.54-.31-1.11-.92-1.72-1.85-1.8-4.44-3.32-7.79-4.55-4.36-1.67-7.87-2.5-10.55-2.5-1.71,0-2.66.4-2.84,1.19,0,1.19.11,2.9.3,5.15.2,2.24.34,4.26.43,6.07.09,1.8.13,3.14.13,4.02,0,1.71-.09,3.36-.26,4.94l-.6,6.46c-6.37-.79-9.96-1.49-10.75-2.11-.75-.92-1.65-1.39-2.7-1.39-1.45,0-2.99,2.2-4.62,6.59-.92,2.6-1.42,6.52-1.51,11.74,0,.67.51,1.37,1.55,2.12,1.04.75,2.27,1.12,3.72,1.12,3.74,0,8.1-.23,13.07-.67-1.24,22.78-1.85,46.17-1.85,70.19,0,13.19.18,20.47.53,21.83.62,2.37,1.72,5.02,3.3,7.95,1.58,2.92,3.27,5.5,5.05,7.72,1.77,2.22,3.2,3.33,4.25,3.33.18,0,.35-.12.53-.36.18-.25.31-.49.39-.76.09-.26.13-.48.13-.66-.39-11.04-.59-21.45-.59-31.26,0-11.92.31-22.93.92-33.04,1.05-18.56,2.5-34.03,4.36-46.43,5.72-.53,11.27-.79,16.68-.79,2.99,0,4.84-.67,5.54-1.98Z"/>
        <path class="cls-3" d="M780.27,796.26c-.09,0-.13-.04-.13-.13-4.26-4.27-6.67-9.43-7.22-15.51-.55-6.07-.83-10.77-.83-14.11,0-6.16.48-12.66,1.45-19.52,1.49-10.64,3.5-20.58,6.01-29.82.13-.35.19-.66.19-.92,0-.18-.03-.37-.1-.59-.06-.22-.3-.48-.69-.79-.4-.31-1.58-.87-3.56-1.69-1.98-.82-4-1.62-6.07-2.41-2.07-.79-3.35-1.19-3.83-1.19-.75,0-1.43,1.55-2.05,4.68l-.99,5.21c-.66-2.24-1.57-4.42-2.73-6.52-1.17-2.12-2.64-3.85-4.43-5.22-1.77-1.36-3.94-2.05-6.5-2.05-4.61,0-8.83,1.75-12.66,5.25-3.82,3.49-7.12,8.08-9.89,13.75-2.77,5.67-4.97,11.92-6.6,18.76-1.62,6.83-2.54,12.32-2.73,16.46-.2,4.14-.3,6.93-.3,8.38,0,12.57,2.44,21.96,7.32,28.16,2.77,3.57,6.46,5.35,11.08,5.35,3.16,0,5.82-1.25,7.97-3.73,2.16-2.48,4.03-5.68,5.61-9.6,1.45-3.6,3.52-9.45,6.2-17.54,0,8.36,1.57,15.59,4.72,21.71,3.14,6.11,6.79,9.17,10.91,9.17,1.41,0,2.95-.25,4.62-.76,1.67-.5,3.13-1.09,4.36-1.75,1.23-.66,1.84-1.2,1.84-1.65,0-.48-.32-.94-.99-1.38ZM750.23,770.1c-2.09,6.66-4.36,12.27-6.82,16.82-2.47,4.55-5.08,6.82-7.85,6.82-2.07,0-3.2-1.66-3.4-4.98-.2-3.32-.3-5.75-.3-7.29,0-11.04,1.8-23.66,5.41-37.85,1.93-7.66,4.21-14.11,6.82-19.36,2.62-5.25,5.34-7.89,8.15-7.89,1.8,0,2.75.68,2.84,2.05.09,1.36.13,2.31.13,2.84,0,3.83-1.21,8.84-3.63,15.04-1.23,3.34-2.27,5.59-3.1,6.76-.83,1.16-1.26,2.1-1.26,2.8,0,1.41,2.92,2.77,8.77,4.09-1.76,6.77-3.68,13.49-5.77,20.14Z"/>
        <path class="cls-3" d="M836.15,701.14c.7-1.32,3.07-2.66,7.12-4.02,1.8-.53,3.37-1.12,4.72-1.78,1.34-.66,2.01-1.52,2.01-2.57,0-.35-.21-.72-.62-1.12-.42-.4-1.07-.59-1.95-.59h-1.58c-8.18,0-18.1-.47-29.75-1.39,1.85-9.76,3.13-15.96,3.83-18.6.22-1.01.32-1.71.32-2.11,0-.54-.31-1.11-.92-1.72-1.84-1.8-4.44-3.32-7.78-4.55-4.36-1.67-7.88-2.5-10.56-2.5-1.71,0-2.66.4-2.84,1.19,0,1.19.1,2.9.3,5.15.19,2.24.34,4.26.43,6.07.09,1.8.13,3.14.13,4.02,0,1.71-.09,3.36-.26,4.94l-.6,6.46c-6.38-.79-9.96-1.49-10.75-2.11-.75-.92-1.65-1.39-2.7-1.39-1.46,0-2.99,2.2-4.62,6.59-.92,2.6-1.43,6.52-1.52,11.74,0,.67.52,1.37,1.55,2.12,1.03.75,2.27,1.12,3.72,1.12,3.74,0,8.09-.23,13.06-.67-1.23,22.78-1.84,46.17-1.84,70.19,0,13.19.18,20.47.53,21.83.61,2.37,1.71,5.02,3.3,7.95,1.58,2.92,3.27,5.5,5.04,7.72,1.78,2.22,3.2,3.33,4.26,3.33.18,0,.35-.12.53-.36.18-.25.31-.49.4-.76.09-.26.13-.48.13-.66-.39-11.04-.6-21.45-.6-31.26,0-11.92.31-22.93.93-33.04,1.05-18.56,2.5-34.03,4.35-46.43,5.72-.53,11.28-.79,16.69-.79,2.99,0,4.84-.67,5.54-1.98Z"/>
        <path class="cls-3" d="M928.08,741.47c.18.05.35.11.47.2-.11-.1-.29-.16-.47-.2Z"/>
        <path class="cls-3" d="M1007.83,745.15c-2.44-5.06-5.3-9.9-8.74-14.38-6.14-8.01-13.39-14.67-22.7-18.82-7.89-3.52-16.1-4.71-24.67-3.04-12.46,2.41-22.29,9.11-30.44,18.56-2.73,3.16-5.19,6.52-7.38,10.06.37-.29.72-.4,1.04-.4-.33,0-.68.11-1.04.4-3.71,5.86-6.99,11.91-9.83,18.15-1.22,2.65-2.35,5.34-3.42,8.07-.14.36-.28.73-.42,1.1-2.18,5.44-5.4,10.46-9.67,15.03l.53-10.55c.44-8.75.66-17.15.66-25.19,0-10.86-1.01-18.01-3.04-21.44-3.34-4.87-6.02-7.31-8.04-7.31-1.58,0-3.33,1.84-5.24,5.54-1.91,3.69-3.91,8.38-5.97,14.05-2.06,5.67-4.14,11.63-6.23,17.87-2.09,6.24-4.12,12.07-6.1,17.48-1.98,5.41-3.85,9.83-5.64,13.29-1.78,3.45-3.4,5.18-4.85,5.18-1.1,0-2-1.82-2.7-5.44-.7-3.63-1.2-8.01-1.48-13.15-.29-5.15-.43-9.98-.43-14.51,0-9.5.73-18.33,2.18-26.51,1.49-8.54,2.95-13.48,4.36-14.85.92-.79,1.39-1.42,1.39-1.91,0-.53-.84-1.34-2.51-2.44-4.44-2.91-8.53-4.36-12.27-4.36l-.73-.07c-.39,0-.88.1-1.45.26-.57.18-1.24.8-2.01,1.85-.77,1.05-1.45,2.8-2.05,5.24-.59,2.44-1.09,5.84-1.48,10.19-.39,4.36-.59,10.01-.59,16.96,0,12.05,1.28,22.72,3.85,32.02,2.57,9.3,5.82,16.58,9.76,21.83,3.93,5.25,7.9,7.89,11.91,7.89,2.24,0,4.31-1.35,6.23-4.06,1.91-2.7,3.71-6.1,5.41-10.19,1.69-4.09,3.29-8.29,4.79-12.59,1.8-5.28,3.56-9.83,5.28-13.65,1.71-3.83,3.42-5.74,5.15-5.74s2.7,4.79,2.7,14.38c0,7.38-.45,13.58-1.33,18.6-4.57,4.27-8.92,8.22-13.06,11.87-15.74,13.5-23.79,22.78-24.14,27.84l-.26,4.21c0,6.3,4.81,13.64,14.44,22.03,2.41,2.12,4.44,3.17,6.07,3.17,3.92,0,7.63-2.75,11.14-8.25,3.52-5.5,6.53-12.59,9.04-21.28,2.51-8.68,4.27-17.97,5.28-27.86.08-.76,1.78-1.4,2.36-1.74,11.44-11.26,17.64-21.79,22.67-37.12.48-1.54.99-3.07,1.56-4.58.1-.26.19-.51.29-.77,1.98-5.18,4.35-10.14,7.02-15.02.03-.06.05-.11.08-.17-.03.06-.05.12-.08.18.13-.2.26-.4.39-.6,1.72-2.63,3.44-5.25,5.65-7.53,7.51-7.75,16.48-11.94,27.47-11.21,8.22.54,15.75,3.12,22.84,7.25,2.94,1.71,5.65,3.71,8.2,5.93.58.51,1.22.97,1.65,1.83-2.58-.99-5.01-2.01-7.5-2.87-11.75-4.05-23.66-6.03-35.99-2.9-6.56,1.67-12.02,5.15-16.63,10.03-.23.25-.41.47-.5.72-.17.4-.11.83.33,1.4,7.54,10.08,17.76,15.03,30.15,15.95,7.49.55,14.69-1.17,21.91-2.72,7.89-1.69,15.81-3.13,23.93-2.61,2.12.13,4.23.29,6.41.44-.52-3.3-2.1-6.15-3.48-9.01ZM868.27,830.82c-2.6,5.89-4.96,9.83-7.1,11.8-2.13,1.98-3.9,2.97-5.3,2.97-1.33,0-2.62-.59-3.9-1.78-1.41-1.49-2.11-3.12-2.11-4.87,0-3.92,3.52-9.11,10.55-15.57,4.49-4.05,9.5-8.2,15.04-12.47-2.2,7.38-4.6,14.03-7.19,19.92ZM917.4,738.18c-.3-.09-.59-.25-.89-.44.3.17.59.34.89.43.58.17,1.16.38,1.74.6-.58-.21-1.16-.42-1.74-.59Z"/>
      </g>
      <g>
        <path class="cls-3" d="M878.73,655.46c-.61,0-1.18-.25-1.62-.7-.47-.46-.76-1.11-.76-1.77v-.19l.03-.18c.63-3.34-1.01-7.04-4.86-11-4.31-4.43-7.74-7.8-10.21-10.03l-1.57-1.41,22.33-22.33,1.41,1.31c1.72,1.59,4.14,3.89,7.21,6.83,3.28,3.15,5.94,6.52,7.92,10.01,2.93,5.18,1.17,8.9-.82,11.12l-17.46,17.66c-.44.45-1.01.69-1.61.69Z"/>
        <path class="cls-3" d="M252.03,669.78c-.22,0-.43-.03-.64-.1h-.67l-.67-.98c-.26-.42-.48-1.09-.15-1.97.51-3.17-1.13-6.78-4.9-10.71-1.88-1.97-3.66-3.78-5.3-5.41-.22.33-.46.65-.72.96l-3.53,4.21v-.86l-14.18,14.18c-.44.44-1.01.68-1.6.68-.4,0-.78-.11-1.12-.31-.7-.33-1.25-1.07-1.25-2.17v-.19l.04-.19c.62-3.23-1-6.9-4.79-10.91-4.2-4.45-7.65-7.84-10.25-10.08l-1.63-1.41,22.37-22.37,1.41,1.31c1.78,1.65,4.26,4.02,7.4,7.01,2.8,2.7,5.12,5.53,6.92,8.45l16.61-16.78,1.42,1.32c1.76,1.63,4.18,3.92,7.4,7.01,3.3,3.18,5.93,6.56,7.84,10.03,2.81,5.15,1.16,8.86-.71,11.06l-3.52,4.15v-.8l-14.16,14.17c-.44.44-1.01.68-1.61.68Z"/>
        <path class="cls-3" d="M973.68,475.03c-.61,0-1.18-.25-1.62-.7-.47-.46-.76-1.1-.76-1.77v-.19l.03-.18c.63-3.34-1.01-7.04-4.86-11-4.3-4.43-7.74-7.8-10.21-10.03l-1.57-1.41,22.33-22.33,1.41,1.31c1.7,1.57,4.13,3.87,7.21,6.83,3.28,3.15,5.94,6.52,7.92,10.01,2.93,5.18,1.17,8.91-.82,11.12l-17.46,17.66c-.45.45-1.02.69-1.61.69Z"/>
        <path class="cls-3" d="M778.55,475.03c-.61,0-1.18-.25-1.62-.7-.47-.46-.76-1.11-.76-1.77v-.19l.03-.18c.63-3.34-1.01-7.04-4.86-11-4.31-4.43-7.74-7.8-10.21-10.03l-1.57-1.41,22.33-22.33,1.41,1.31c1.73,1.6,4.16,3.9,7.21,6.83,3.28,3.15,5.94,6.52,7.92,10.01,2.93,5.18,1.17,8.9-.82,11.12l-17.46,17.66c-.44.45-1.01.69-1.61.69Z"/>
        <path class="cls-3" d="M743.02,475.03c-.61,0-1.18-.25-1.62-.7-.47-.46-.76-1.11-.76-1.77v-.19l.03-.18c.63-3.34-1.01-7.04-4.86-11-4.3-4.43-7.74-7.8-10.21-10.03l-1.57-1.41,22.33-22.33,1.41,1.31c1.73,1.6,4.16,3.9,7.21,6.83,3.28,3.15,5.94,6.52,7.92,10.01,2.93,5.18,1.17,8.9-.82,11.12l-17.46,17.66c-.44.45-1.01.69-1.61.69Z"/>
        <path class="cls-3" d="M689.08,475.03c-.61,0-1.18-.25-1.62-.7-.47-.46-.76-1.11-.76-1.77v-.19l.03-.18c.63-3.34-1.01-7.04-4.86-11-4.31-4.43-7.74-7.8-10.21-10.03l-1.57-1.41,22.33-22.33,1.41,1.31c1.73,1.6,4.16,3.9,7.21,6.83,3.28,3.15,5.94,6.52,7.92,10.01,2.93,5.18,1.17,8.9-.82,11.12l-17.46,17.66c-.44.45-1.01.69-1.61.69Z"/>
        <path class="cls-3" d="M653.56,475.03c-.61,0-1.18-.25-1.62-.7-.47-.46-.76-1.11-.76-1.77v-.19l.03-.18c.63-3.34-1.01-7.04-4.86-11-4.31-4.43-7.74-7.8-10.21-10.03l-1.57-1.41,22.33-22.33,1.41,1.31c1.73,1.6,4.16,3.9,7.21,6.83,3.28,3.15,5.94,6.52,7.92,10.01,2.93,5.18,1.17,8.9-.82,11.12l-17.46,17.66c-.44.45-1.01.69-1.61.69Z"/>
        <path class="cls-3" d="M439.5,655.46c-4.68,0-9.43-.21-14.11-.63-21.86-1.98-43.59-6.66-64.59-13.91-21.16-7.32-41.6-15.2-60.76-23.41-17.48-7.54-34.17-14.05-49.6-19.33-15.39-5.27-29.8-8.17-42.82-8.6-.72-.02-1.43-.03-2.14-.03-11.91,0-22.75,3.34-32.22,9.93-.41.33-.91.52-1.42.52-.6,0-1.17-.24-1.61-.68l-.58-.59v-2.04l20.64-20.62c10.79-10.42,23.49-15.92,37.76-16.38,1.05-.03,2.1-.05,3.16-.05,13.12,0,27.62,2.63,43.12,7.81,16.38,5.48,34.28,12.37,53.21,20.48,22.61,9.87,46.59,18.85,71.31,26.69,22.54,7.15,45.72,10.78,68.91,10.78,2.01,0,4.06-.03,6.08-.08,23.91-.65,47.95-8.12,71.5-22.21-4.43-1.89-9.21-4.85-14.24-8.84-6.64-5.28-12.08-12.16-16.16-20.45-4.15-8.44-5.1-18.23-2.8-29.09,2.26-10.77,9.59-22.69,21.79-35.41l26.02-25.83.09-.07c1.41-1.1,3.09-1.65,5.01-1.65,3.77,0,8.4,2.14,14.17,6.55,7.9,6.04,15.68,14.56,23.14,25.32,7.49,10.83,12.46,22.22,14.78,33.85,1.94,9.75.4,18.53-4.58,26.18.03,0,.06,0,.1-.01,2.24-.3,5.3-.49,9.35-.57h58.97c2.85,0,5.6,1.02,7.75,2.87.59.49,1.21,1.05,1.83,1.6,1.96,1.76,4.04,3.76,6.2,5.99.58-2.06,1.03-4.12,1.32-6.13.13-.81.21-1.52.25-2.19,0-.07.02-.31.02-.31.6-6.97-.77-13.43-4.05-19.18-5.22-9.15-12.18-17.26-20.7-24.11-8.76-7.07-16.07-13.31-21.75-18.54-8.23-7.58-6.27-13.37-3.18-16.89l.09-.1,24.23-24.21h2.11l.6.68c.63.71.74,1.68.36,2.48-.74,3.03,1.27,6.65,5.98,10.76,5.36,4.67,11.99,10.23,19.71,16.5,7.83,6.36,14.56,13.77,19.99,22.02,5.6,8.51,7.68,18.33,6.17,29.18-.85,6.08-3.56,12.64-8.07,19.54,1.03,0,2.03,0,2.99,0,2.59,0,4.87.01,6.58.04h49.04c2.89,0,5.66,1.01,7.8,2.85.53.45,1.09.94,1.65,1.45,2.02,1.81,4.17,3.87,6.39,6.15.81-2.85,1.34-5.63,1.58-8.31v-.32c.61-6.99-.75-13.44-4.04-19.18-5.2-9.12-12.17-17.23-20.7-24.12-8.71-7.02-16.03-13.25-21.74-18.52-8.22-7.59-6.27-13.37-3.18-16.89l.09-.09,24.23-24.23h2.11l.6.68c.62.71.74,1.67.36,2.47-.75,3.03,1.25,6.65,5.97,10.77,5.38,4.7,11.82,10.1,19.71,16.51,7.81,6.33,14.54,13.73,19.99,22.02,5.6,8.5,7.68,18.31,6.17,29.17-.85,6.07-3.56,12.63-8.08,19.57,2.39-.02,4.73-.03,6.86-.03,2.48,0,4.66.01,6.31.04h49.06c2.87,0,5.63,1,7.78,2.83,2.53,2.18,5.23,4.75,8.06,7.65.39-1.38.71-2.74.96-4.05.32-1.63.52-3.12.62-4.57.07-.67.11-1.32.12-2.16.17-5.19-.8-10.07-2.87-14.53-.28-.63-.61-1.29-1.02-2.05-.08-.13-.16-.27-.23-.4l-.05-.09c-5.2-9.1-12.17-17.21-20.69-24.09-8.67-6.98-16-13.21-21.76-18.52-8.22-7.6-6.27-13.37-3.18-16.89l.09-.09,24.23-24.23h2.04l.59.59c.73.73.87,1.76.43,2.61-.72,3.03,1.29,6.63,5.99,10.72,5.44,4.76,12.06,10.31,19.7,16.51,7.81,6.33,14.54,13.73,19.99,22.02,5.6,8.5,7.68,18.31,6.17,29.17-.05.4-.12.83-.21,1.28l14-.06c10.74.25,20.88,2.87,30.25,7.79,1.37-31.05,3.94-53.05,7.64-65.39,3.95-13.27,9.17-19.72,15.96-19.72.27,0,.54.01.82.03h33.81l.56.46c.12.1.24.22.35.33l.59.59.05.88c0,.64-.21,1.22-.6,1.69l-.43.51-.65.15c-3.86.9-9.31,7.21-13.33,32.2-3.36,20.9-5.06,56.98-5.04,107.22v2s-40.58,0-40.58,0l-.06-1.94c-.43-13.82-5.22-26.23-14.24-36.89-8.64-10.21-19.2-17.61-31.38-22.01-1.76,4.37-4.36,8.95-7.74,13.63-3.06,4.27-6.83,8.74-11.21,13.28-.07.08-.18.19-.3.31-.07.07-.14.14-.21.21-2.9,2.88-5.56,5.51-8.05,7.98l-5,4.95h-285.64c-2.22-.07-4.27-.1-6.16-.1-5.13,0-9.29.24-12.36.72l-.34.06c-2.07.34-3.59.78-4.52,1.31l-.49.28-3.09-.08v-2.25l.03-.09c.02-.14.05-.27.09-.41.11-.42.34-.81.65-1.13l2.92-2.92.86-.9c5.42-9.58,5.95-20.1,1.62-32.17-4.57-12.45-11.26-23.86-19.88-33.89-7.79-9.07-14.91-15.24-21.19-18.35-4.34,12.06-4.43,22.73-.26,31.72,4.5,9.66,10.7,17.25,18.42,22.55,7.72,5.3,13.91,8.05,18.4,8.17l4.63.12-28.99,29.19c-21.07,20.68-42.86,34.84-64.8,42.11-17.24,5.69-34.71,8.58-51.94,8.58Z"/>
      </g>
      <g>
        <path class="cls-2" d="M465.46,383.18c-1.85,3.12-4.05,6.07-6.58,8.77-1.13,1.2-2.32,2.35-3.58,3.44-7.45,6.46-20.41,12.25-34.64,12.87-4,.17-8.1-.06-12.21-.8-8.76-1.58-17.54-5.47-25.46-12.64-9.68-8.76-18.05-22.43-23.45-42.76,5.23-2.18,15.04-5.67,25.81-7.81,20.25-4.03,51.82-3.89,51.9,23.25.03,10.73-7.83,23.87-20.95,24.47-11.11.51-24.58-4.04-31.05-11.13.34.42,11.22,13.45,30.49,13.93.46.02.93.02,1.4.02,1.17,0,2.33-.08,3.47-.22,6.12-.74,11.69-3.3,16.11-7,4.68-3.92,7.72-8.83,9.51-14.23,5.36,5.03,12.03,8.45,19.24,9.86Z"/>
        <path class="cls-1" d="M474.76,483.17c-11.94,16.87-31.8,33.58-48.34,40.7l-8.2,3.89c-1.01.48-2.1.72-3.2.72s-2.18-.24-3.2-.72l-8.2-3.89c-16.54-7.11-36.39-23.83-48.34-40.7-15.14-21.39-22-47.38-18.82-71.31.27-2.06,1.39-3.91,3.08-5.11,1.7-1.2,3.81-1.64,5.84-1.21,23.62,4.96,45.85,20.06,61,41.45,2.27,3.21,4.39,6.57,6.3,9.97,1.25,2.24,2.38,4.99,3.42,7.95,1.11,2.88,2.04,5.88,2.73,8.97.21.74.41,1.49.6,2.23.26-3.11.98-19.77-11.69-35.96-.07-9.85-.13-20.13-.18-30.26,3.86.66,7.84.99,11.86.99,1.02,0,2.05-.02,3.07-.07.14,30.68.4,62.5.85,79.59.11,4.12-3.14,7.54-7.26,7.65-.07,0-.13,0-.2,0-3.36,0-6.21-2.23-7.14-5.31-.38-.6-.69-1.26-.89-1.98-.51-1.8-1.07-3.97-1.65-6.26-1.71-6.69-4.05-15.84-6.52-20.26-1.65-2.94-3.48-5.85-5.45-8.63-11.18-15.79-26.73-27.56-43.58-33.21-.27,17.77,5.66,36.35,16.83,52.14,10.38,14.66,28.1,29.65,42.16,35.65.09.04.18.08.27.12l5.13,2.43,5.13-2.43c.09-.04.18-.08.27-.12,14.05-6,31.78-21,42.16-35.65,11.19-15.81,17.12-34.42,16.83-52.2-15.4,5.01-27.34,14.58-38.84,30.83-2.38,3.36-7.04,4.15-10.4,1.78-3.36-2.38-4.16-7.03-1.78-10.4,15.65-22.1,32.99-34.13,56.26-39.01,2.03-.43,4.15.01,5.84,1.21,1.7,1.2,2.81,3.05,3.09,5.11,3.18,23.93-3.68,49.92-18.82,71.31Z"/>
      </g>
      <g>
        <path class="cls-1" d="M889.33,617.43c-3.15-3.03-5.55-5.29-7.19-6.81l-19.48,19.48c2.52,2.27,5.96,5.64,10.31,10.12,4.35,4.48,6.15,8.73,5.39,12.77,0,.13.06.25.19.38.12.13.25.13.38,0l17.4-17.59c2.27-2.52,2.46-5.45.57-8.79-1.89-3.34-4.42-6.53-7.57-9.55Z"/>
        <path class="cls-1" d="M262.81,631.93c-3.15-3.02-5.61-5.36-7.37-6.99l-17.11,17.29c-.11-.25-.24-.49-.38-.75-1.83-3.34-4.32-6.51-7.47-9.55-3.16-3.02-5.61-5.36-7.37-6.99l-19.48,19.48c2.64,2.27,6.1,5.67,10.39,10.22,4.29,4.53,6.05,8.76,5.31,12.66,0,.25.05.38.17.38.13.13.25.13.38,0l17.59-17.59v.19c.83-.98,1.37-2.02,1.59-3.13,2.07,2,4.54,4.5,7.41,7.48,4.34,4.53,6.13,8.76,5.39,12.66-.13.25-.13.38,0,.38.13.13.25.13.38,0l17.58-17.59v.19c2.15-2.53,2.3-5.45.48-8.8-1.83-3.34-4.32-6.51-7.47-9.55Z"/>
        <path class="cls-1" d="M967.91,459.79c4.35,4.48,6.15,8.73,5.39,12.77,0,.13.06.25.19.38.12.13.25.13.38,0l17.4-17.59c2.27-2.52,2.46-5.45.57-8.79-1.89-3.34-4.42-6.53-7.57-9.55-3.15-3.03-5.55-5.29-7.19-6.81l-19.48,19.48c2.52,2.27,5.96,5.64,10.31,10.12Z"/>
        <path class="cls-1" d="M772.78,459.79c4.35,4.48,6.15,8.73,5.39,12.77,0,.13.06.25.19.38.12.13.25.13.38,0l17.4-17.59c2.27-2.52,2.46-5.45.57-8.79-1.89-3.34-4.42-6.53-7.57-9.55-3.15-3.03-5.55-5.29-7.19-6.81l-19.48,19.48c2.52,2.27,5.96,5.64,10.31,10.12Z"/>
        <path class="cls-1" d="M737.26,459.79c4.35,4.48,6.15,8.73,5.39,12.77,0,.13.06.25.19.38.12.13.25.13.38,0l17.4-17.59c2.27-2.52,2.46-5.45.57-8.79-1.89-3.34-4.42-6.53-7.57-9.55-3.15-3.03-5.55-5.29-7.19-6.81l-19.48,19.48c2.52,2.27,5.96,5.64,10.31,10.12Z"/>
        <path class="cls-1" d="M683.32,459.79c4.35,4.48,6.15,8.73,5.39,12.77,0,.13.06.25.19.38.12.13.25.13.38,0l17.4-17.59c2.27-2.52,2.46-5.45.57-8.79-1.89-3.34-4.42-6.53-7.57-9.55-3.15-3.03-5.55-5.29-7.19-6.81l-19.48,19.48c2.52,2.27,5.96,5.64,10.31,10.12Z"/>
        <path class="cls-1" d="M647.79,459.79c4.35,4.48,6.15,8.73,5.39,12.77,0,.13.06.25.19.38.12.13.25.13.38,0l17.4-17.59c2.27-2.52,2.46-5.45.57-8.79-1.89-3.34-4.42-6.53-7.57-9.55-3.15-3.03-5.55-5.29-7.19-6.81l-19.48,19.48c2.52,2.27,5.96,5.64,10.31,10.12Z"/>
        <path class="cls-1" d="M1028.09,479.41h-33.17c-6.07-.54-11,5.55-14.78,18.26-3.8,12.7-6.36,35.41-7.69,68.14-9.9-5.8-20.59-8.84-32.1-9.11l-15.97.06h-.51c.21-.81.38-1.61.51-2.4.08-.4.14-.78.19-1.16,1.45-10.41-.51-19.67-5.86-27.79-5.36-8.14-11.89-15.33-19.58-21.56-7.69-6.24-14.27-11.76-19.75-16.56-5.5-4.78-7.68-9.14-6.53-13.05.13-.13.13-.25,0-.38h-.38l-23.65,23.65c-3.66,4.16-2.64,8.85,3.04,14.1,5.67,5.23,12.89,11.38,21.66,18.43,8.76,7.07,15.81,15.29,21.18,24.68.08.14.16.3.25.44.4.73.78,1.48,1.11,2.23,2.21,4.77,3.23,9.9,3.05,15.41-.02.75-.05,1.49-.13,2.26-.11,1.57-.33,3.16-.65,4.8-.46,2.43-1.14,4.93-2.03,7.48h-.02c-3.7-3.94-7.12-7.25-10.23-9.93-1.81-1.54-4.12-2.35-6.48-2.35h-49.09c-3.29-.05-8.69-.05-14.32,0-.87,0-1.76,0-2.64.02,0,0,0-.02.02-.02,5.66-7.87,8.96-15.14,9.9-21.85,1.45-10.41-.51-19.67-5.86-27.79-5.36-8.14-11.89-15.33-19.58-21.56-7.69-6.24-14.29-11.76-19.77-16.56-5.48-4.78-7.66-9.14-6.52-13.05.11-.13.11-.25,0-.38h-.38l-23.65,23.65c-3.66,4.16-2.64,8.85,3.04,14.1,5.67,5.23,12.89,11.38,21.64,18.43,8.77,7.07,15.83,15.29,21.18,24.68,3.51,6.13,4.94,12.92,4.31,20.34,0,.11,0,.22-.02.33-.35,3.81-1.24,7.8-2.69,11.95-3.07-3.27-5.94-6.1-8.63-8.5-.54-.49-1.08-.97-1.61-1.41-1.81-1.56-4.12-2.37-6.5-2.37h-49.07c-3.1-.05-8.06-.05-13.35-.02,5.67-7.87,8.96-15.14,9.9-21.83,1.45-10.41-.51-19.67-5.86-27.81-5.36-8.14-11.89-15.32-19.58-21.56-7.69-6.25-14.29-11.76-19.77-16.54-5.48-4.8-7.66-9.15-6.52-13.06.11-.11.11-.24,0-.37h-.38l-23.65,23.63c-3.65,4.16-2.64,8.87,3.04,14.1s12.89,11.38,21.64,18.45c8.77,7.06,15.83,15.29,21.18,24.68,3.51,6.15,4.94,12.92,4.31,20.34,0,.08-.02.14-.02.22-.05.79-.14,1.59-.27,2.4-.46,3.12-1.26,6.34-2.42,9.66-2.99-3.19-5.8-5.97-8.42-8.33-.6-.54-1.21-1.08-1.8-1.57-1.8-1.54-4.08-2.38-6.45-2.38h-58.92c-3.85.08-6.88.25-9.14.56-2.24.29-4.17.89-5.82,1.79,7.67-8.31,10.37-18.16,8.1-29.55-2.27-11.41-7.09-22.44-14.46-33.1-7.37-10.65-14.95-18.94-22.71-24.87s-13.33-7.56-16.73-4.91l-25.9,25.71c-11.98,12.49-19.09,23.96-21.28,34.44-2.21,10.46-1.33,19.72,2.64,27.79,3.97,8.07,9.17,14.65,15.61,19.77,6.44,5.1,12.3,8.41,17.59,9.93-25.09,15.75-50.44,23.98-76.04,24.68-25.58.68-50.8-2.91-75.64-10.79-24.84-7.88-48.67-16.8-71.49-26.76-18.8-8.06-36.47-14.87-53.06-20.42-16.57-5.55-31.77-8.1-45.58-7.66-13.81.44-25.95,5.7-36.41,15.8l-20.05,20.04v.38c.13.13.25.13.38,0,10.47-7.31,22.34-10.74,35.66-10.31,13.3.45,27.76,3.35,43.4,8.71,15.64,5.36,32.21,11.82,49.74,19.39,19.42,8.33,39.63,16.1,60.62,23.36,20.99,7.25,42.37,11.84,64.12,13.81,21.74,1.95,43.49-.67,65.25-7.85,21.74-7.2,43.08-21.07,64.01-41.62l25.73-25.9c-4.91-.13-11.41-2.97-19.48-8.52-8.07-5.55-14.43-13.33-19.1-23.36-4.66-10.03-4.35-21.77.95-35.26,7.06,2.89,15,9.49,23.82,19.75,8.84,10.28,15.57,21.79,20.25,34.52,4.53,12.62,3.91,23.96-1.89,34.06l-1.06,1.1-.13.13-2.78,2.78c-.06.06-.13.16-.14.27-.03.08-.05.16-.05.25h0s0,0,0,0l.59.02c1.14-.65,2.86-1.16,5.18-1.54h0c4.34-.72,10.74-.96,19.19-.7h284.82c3.69-3.66,7.82-7.74,12.39-12.28.17-.19.37-.37.54-.56,4.35-4.51,8.03-8.87,11.03-13.06,3.8-5.26,6.52-10.27,8.18-15,.24.08.46.16.7.25,13.06,4.48,24.2,12.16,33.39,23.01,9.36,11.06,14.27,23.76,14.72,38.12h36.65c-.02-50.64,1.68-86.5,5.07-107.54,3.38-21.04,8.34-32.32,14.86-33.83.08-.09.13-.22.13-.4-.1-.09-.17-.19-.27-.27Z"/>
      </g>
    </g>
  </g>
</svg>