<?xml version="1.0" encoding="UTF-8"?>
<svg xmlns="http://www.w3.org/2000/svg" version="1.1" viewBox="0 0 1200 1200">
  <defs>
    <style>
      .cls-1 {
        fill: #023e2f;
      }

      .cls-2, .cls-3 {
        fill: #78c044;
      }

      .cls-3 {
        fill-rule: evenodd;
      }
    </style>
  </defs>
  <!-- Generator: Adobe Illustrator 28.7.1, SVG Export Plug-In . SVG Version: 1.2.0 Build 142)  -->
  <g>
    <g id="Layer_1">
      <g>
        <g>
          <g>
            <path class="cls-3" d="M465.46,383.18c-1.85,3.12-4.05,6.07-6.58,8.77-1.13,1.2-2.32,2.35-3.58,3.44-7.45,6.46-20.41,12.25-34.64,12.87-4,.17-8.1-.06-12.21-.8-8.76-1.58-17.54-5.47-25.46-12.64-9.68-8.76-18.05-22.43-23.45-42.76,5.23-2.18,15.04-5.67,25.81-7.81,20.25-4.03,51.82-3.89,51.9,23.25.03,10.73-7.83,23.87-20.95,24.47-11.11.51-24.58-4.04-31.05-11.13.34.42,11.22,13.45,30.49,13.93.46.02.93.02,1.4.02,1.17,0,2.33-.08,3.47-.22,6.12-.74,11.69-3.3,16.11-7,4.68-3.92,7.72-8.83,9.51-14.23,5.36,5.03,12.03,8.45,19.24,9.86Z"/>
            <path class="cls-2" d="M474.76,483.17c-11.94,16.87-31.8,33.58-48.34,40.7l-8.2,3.89c-1.01.48-2.1.72-3.2.72s-2.18-.24-3.2-.72l-8.2-3.89c-16.54-7.11-36.39-23.83-48.34-40.7-15.14-21.39-22-47.38-18.82-71.31.27-2.06,1.39-3.91,3.08-5.11,1.7-1.2,3.81-1.64,5.84-1.21,23.62,4.96,45.85,20.06,61,41.45,2.27,3.21,4.39,6.57,6.3,9.97,1.25,2.24,2.38,4.99,3.42,7.95,1.11,2.88,2.04,5.88,2.73,8.97.21.74.41,1.49.6,2.23.26-3.11.98-19.77-11.69-35.96-.07-9.85-.13-20.13-.18-30.26,3.86.66,7.84.99,11.86.99,1.02,0,2.05-.02,3.07-.07.14,30.68.4,62.5.85,79.59.11,4.12-3.14,7.54-7.26,7.65-.07,0-.13,0-.2,0-3.36,0-6.21-2.23-7.14-5.31-.38-.6-.69-1.26-.89-1.98-.51-1.8-1.07-3.97-1.65-6.26-1.71-6.69-4.05-15.84-6.52-20.26-1.65-2.94-3.48-5.85-5.45-8.63-11.18-15.79-26.73-27.56-43.58-33.21-.27,17.77,5.66,36.35,16.83,52.14,10.38,14.66,28.1,29.65,42.16,35.65.09.04.18.08.27.12l5.13,2.43,5.13-2.43c.09-.04.18-.08.27-.12,14.05-6,31.78-21,42.16-35.65,11.19-15.81,17.12-34.42,16.83-52.2-15.4,5.01-27.34,14.58-38.84,30.83-2.38,3.36-7.04,4.15-10.4,1.78-3.36-2.38-4.16-7.03-1.78-10.4,15.65-22.1,32.99-34.13,56.26-39.01,2.03-.43,4.15.01,5.84,1.21,1.7,1.2,2.81,3.05,3.09,5.11,3.18,23.93-3.68,49.92-18.82,71.31Z"/>
          </g>
          <path class="cls-2" d="M499.25,459.79c-1.81,146.51-141.29,152.63-222.26-3.86v67.58h-21.77v-115.67h23.13c24.27,56.47,74.62,151.05,149.69,140.61,25.21-3.51,38.84-26.24,45.1-52.19,2.61-3.01,5.04-6.08,7.21-9.14,9.06-12.8,15.33-27.17,18.49-41.85.31,4.8.45,9.63.41,14.51Z"/>
        </g>
        <g>
          <path class="cls-2" d="M520.67,660.19c-.92,0-2.99.49-6.23,1.48-3.24.98-6.3,2.27-9.2,3.82-2.91,1.56-4.36,3.16-4.36,4.79,0,.61.32,1.28.96,2.01.63.73,1.28,2.83,1.94,6.3.31,26.52.47,57.89.47,94.12-3.35-9.24-8.68-23.26-16.03-42.08-13.37-34.25-20.32-52.85-20.85-55.8,0-1.1-.66-1.78-1.98-2.05-3.7-1.01-7.76-1.52-12.21-1.52-2.94,0-5.54.25-7.78.73-2.77.53-4.15,1.32-4.15,2.37,0,.4.2.9.62,1.52.41.61.92,1.31,1.52,2.08.59.77,1.19,1.57,1.81,2.41l.07,7.72c.13,6.29.19,13.98.19,23.09,0,18.2-.72,35.02-2.18,50.45-1.32,13.86-3.69,25.68-7.12,35.48-.22.61-.68,1.15-1.39,1.59-.92.75-1.38,1.6-1.38,2.57,0,.75,1.25,1.71,3.76,2.9,2.5,1.19,5.26,2.26,8.28,3.2,3,.95,5.24,1.42,6.69,1.42,2.81,0,4.79-3.32,5.94-9.96.53-2.86.86-5.94.99-9.24.26-6.51.54-21.08.85-43.73l.4-23.02c6.82,14.65,13.48,28.43,19.99,41.36,4.97,9.81,8.27,16.6,9.9,20.38.53,1.36,2.09,2.42,4.68,3.17,3.08.79,6.27,1.74,9.57,2.84,5.75,1.98,9.49,2.97,11.2,2.97.71,0,1.22-.24,1.55-.69.33-.47.49-.85.49-1.16v-3.63c0-27.84,1.46-56.74,4.36-86.73,1.27-12.27,1.91-22.12,1.91-29.55l.06-3.37c0-1.84-.09-3.56-.26-5.14-.26-2.07-1.29-3.1-3.1-3.1Z"/>
          <path class="cls-2" d="M595.59,796.26c-.09,0-.13-.04-.13-.13-4.26-4.27-6.67-9.43-7.22-15.51-.55-6.07-.83-10.77-.83-14.11,0-6.16.48-12.66,1.45-19.52,1.49-10.64,3.49-20.58,6.01-29.82.13-.35.19-.66.19-.92,0-.18-.04-.37-.1-.59-.07-.22-.3-.48-.69-.79-.4-.31-1.58-.87-3.56-1.69-1.98-.82-4-1.62-6.08-2.41-2.06-.79-3.34-1.19-3.82-1.19-.75,0-1.43,1.55-2.05,4.68l-.99,5.21c-.66-2.24-1.57-4.42-2.73-6.52-1.17-2.12-2.64-3.85-4.43-5.22-1.78-1.36-3.94-2.05-6.5-2.05-4.61,0-8.83,1.75-12.66,5.25-3.82,3.49-7.12,8.08-9.9,13.75-2.77,5.67-4.96,11.92-6.59,18.76-1.62,6.83-2.54,12.32-2.73,16.46-.2,4.14-.3,6.93-.3,8.38,0,12.57,2.44,21.96,7.32,28.16,2.77,3.57,6.46,5.35,11.07,5.35,3.17,0,5.83-1.25,7.98-3.73,2.16-2.48,4.03-5.68,5.61-9.6,1.45-3.6,3.51-9.45,6.2-17.54,0,8.36,1.57,15.59,4.72,21.71,3.14,6.11,6.78,9.17,10.91,9.17,1.41,0,2.95-.25,4.62-.76,1.67-.5,3.12-1.09,4.36-1.75,1.23-.66,1.84-1.2,1.84-1.65,0-.48-.33-.94-.99-1.38ZM565.55,770.1c-2.09,6.66-4.36,12.27-6.83,16.82-2.46,4.55-5.08,6.82-7.84,6.82-2.07,0-3.2-1.66-3.4-4.98-.2-3.32-.3-5.75-.3-7.29,0-11.04,1.8-23.66,5.41-37.85,1.93-7.66,4.21-14.11,6.82-19.36,2.62-5.25,5.33-7.89,8.15-7.89,1.8,0,2.75.68,2.84,2.05.09,1.36.13,2.31.13,2.84,0,3.83-1.21,8.84-3.63,15.04-1.23,3.34-2.27,5.59-3.1,6.76-.83,1.16-1.26,2.1-1.26,2.8,0,1.41,2.92,2.77,8.77,4.09-1.76,6.77-3.68,13.49-5.77,20.14Z"/>
          <path class="cls-2" d="M638.08,705.69c-2.38,0-4.47.85-6.27,2.55-1.8,1.69-3.36,3.9-4.68,6.63-1.32,2.72-2.42,5.72-3.3,8.97,0-17.28-.21-30.5-.62-39.67-.42-9.17-1.03-15.46-1.82-18.9-.79-3.43-1.77-5.15-2.97-5.15-1.84,0-4.04.74-6.59,2.21-2.55,1.47-4.85,2.99-6.89,4.58-2.05,1.58-3.33,2.68-3.85,3.29-.22.26-.33.61-.33,1.05,0,.93.35,1.96,1.05,3.1,2.86,4.31,5.19,13.87,7,28.7,1.01,8.09,1.51,18.07,1.51,29.94,0,24.67-1.95,44.3-5.87,58.9-.09.26-.13.55-.13.86,0,2.81,2.02,5.16,6.07,7.05,2.72,1.33,6.95,1.98,12.66,1.98.92,0,1.48-.19,1.65-.56.18-.38.26-.81.26-1.29l-.13-1.25c-.26-1.59-.47-3.71-.6-6.4,4.36,6.33,10.93,9.5,19.72,9.5,4.4,0,8.34-1.75,11.85-5.24,3.49-3.5,6.42-8.1,8.77-13.82,2.34-5.72,3.9-11.29,4.65-16.72.75-5.44,1.12-10.19,1.12-14.29,0-10.28-1.65-19.27-4.95-26.97-5.54-12.71-14.64-19.06-27.3-19.06ZM648.5,786.56c-1.33,5.44-3.21,8.18-5.67,8.18-3.08,0-5.38-1.16-6.89-3.46-1.52-2.31-2.47-4.8-2.84-7.49-.38-2.68-.56-5.03-.56-7.06,0-3.73.32-6.52.98-8.38.35-1.05.54-1.89.54-2.5v-.13c0-.53-.23-.9-.67-1.12-.48-.31-1.82-.61-4.02-.92-1.84-.26-3.03-.4-3.56-.4v-3.3c0-18.11,1.95-31.22,5.87-39.3,2.12-4.22,4.71-6.34,7.79-6.34,2.72,0,4.98,2.74,6.75,8.22,1.78,5.47,3.01,11.67,3.7,18.6.69,6.93,1.03,13.37,1.03,19.35,0,10.82-.82,19.5-2.44,26.06Z"/>
          <path class="cls-2" d="M725.93,701.14c.7-1.32,3.08-2.66,7.12-4.02,1.81-.53,3.38-1.12,4.72-1.78,1.34-.66,2.01-1.52,2.01-2.57,0-.35-.2-.72-.62-1.12-.42-.4-1.06-.59-1.95-.59h-1.58c-8.18,0-18.09-.47-29.74-1.39,1.84-9.76,3.12-15.96,3.82-18.6.22-1.01.33-1.71.33-2.11,0-.54-.31-1.11-.92-1.72-1.85-1.8-4.44-3.32-7.79-4.55-4.36-1.67-7.87-2.5-10.55-2.5-1.71,0-2.66.4-2.84,1.19,0,1.19.11,2.9.3,5.15.2,2.24.34,4.26.43,6.07.09,1.8.13,3.14.13,4.02,0,1.71-.09,3.36-.26,4.94l-.6,6.46c-6.37-.79-9.96-1.49-10.75-2.11-.75-.92-1.65-1.39-2.7-1.39-1.45,0-2.99,2.2-4.62,6.59-.92,2.6-1.42,6.52-1.51,11.74,0,.67.51,1.37,1.55,2.12,1.04.75,2.27,1.12,3.72,1.12,3.74,0,8.1-.23,13.07-.67-1.24,22.78-1.85,46.17-1.85,70.19,0,13.19.18,20.47.53,21.83.62,2.37,1.72,5.02,3.3,7.95,1.58,2.92,3.27,5.5,5.05,7.72,1.77,2.22,3.2,3.33,4.25,3.33.18,0,.35-.12.53-.36.18-.25.31-.49.39-.76.09-.26.13-.48.13-.66-.39-11.04-.59-21.45-.59-31.26,0-11.92.31-22.93.92-33.04,1.05-18.56,2.5-34.03,4.36-46.43,5.72-.53,11.27-.79,16.68-.79,2.99,0,4.84-.67,5.54-1.98Z"/>
          <path class="cls-2" d="M780.27,796.26c-.09,0-.13-.04-.13-.13-4.26-4.27-6.67-9.43-7.22-15.51-.55-6.07-.83-10.77-.83-14.11,0-6.16.48-12.66,1.45-19.52,1.49-10.64,3.5-20.58,6.01-29.82.13-.35.19-.66.19-.92,0-.18-.03-.37-.1-.59-.06-.22-.3-.48-.69-.79-.4-.31-1.58-.87-3.56-1.69-1.98-.82-4-1.62-6.07-2.41-2.07-.79-3.35-1.19-3.83-1.19-.75,0-1.43,1.55-2.05,4.68l-.99,5.21c-.66-2.24-1.57-4.42-2.73-6.52-1.17-2.12-2.64-3.85-4.43-5.22-1.77-1.36-3.94-2.05-6.5-2.05-4.61,0-8.83,1.75-12.66,5.25-3.82,3.49-7.12,8.08-9.89,13.75-2.77,5.67-4.97,11.92-6.6,18.76-1.62,6.83-2.54,12.32-2.73,16.46-.2,4.14-.3,6.93-.3,8.38,0,12.57,2.44,21.96,7.32,28.16,2.77,3.57,6.46,5.35,11.08,5.35,3.16,0,5.82-1.25,7.97-3.73,2.16-2.48,4.03-5.68,5.61-9.6,1.45-3.6,3.52-9.45,6.2-17.54,0,8.36,1.57,15.59,4.72,21.71,3.14,6.11,6.79,9.17,10.91,9.17,1.41,0,2.95-.25,4.62-.76,1.67-.5,3.13-1.09,4.36-1.75,1.23-.66,1.84-1.2,1.84-1.65,0-.48-.32-.94-.99-1.38ZM750.23,770.1c-2.09,6.66-4.36,12.27-6.82,16.82-2.47,4.55-5.08,6.82-7.85,6.82-2.07,0-3.2-1.66-3.4-4.98-.2-3.32-.3-5.75-.3-7.29,0-11.04,1.8-23.66,5.41-37.85,1.93-7.66,4.21-14.11,6.82-19.36,2.62-5.25,5.34-7.89,8.15-7.89,1.8,0,2.75.68,2.84,2.05.09,1.36.13,2.31.13,2.84,0,3.83-1.21,8.84-3.63,15.04-1.23,3.34-2.27,5.59-3.1,6.76-.83,1.16-1.26,2.1-1.26,2.8,0,1.41,2.92,2.77,8.77,4.09-1.76,6.77-3.68,13.49-5.77,20.14Z"/>
          <path class="cls-2" d="M836.15,701.14c.7-1.32,3.07-2.66,7.12-4.02,1.8-.53,3.37-1.12,4.72-1.78,1.34-.66,2.01-1.52,2.01-2.57,0-.35-.21-.72-.62-1.12-.42-.4-1.07-.59-1.95-.59h-1.58c-8.18,0-18.1-.47-29.75-1.39,1.85-9.76,3.13-15.96,3.83-18.6.22-1.01.32-1.71.32-2.11,0-.54-.31-1.11-.92-1.72-1.84-1.8-4.44-3.32-7.78-4.55-4.36-1.67-7.88-2.5-10.56-2.5-1.71,0-2.66.4-2.84,1.19,0,1.19.1,2.9.3,5.15.19,2.24.34,4.26.43,6.07.09,1.8.13,3.14.13,4.02,0,1.71-.09,3.36-.26,4.94l-.6,6.46c-6.38-.79-9.96-1.49-10.75-2.11-.75-.92-1.65-1.39-2.7-1.39-1.46,0-2.99,2.2-4.62,6.59-.92,2.6-1.43,6.52-1.52,11.74,0,.67.52,1.37,1.55,2.12,1.03.75,2.27,1.12,3.72,1.12,3.74,0,8.09-.23,13.06-.67-1.23,22.78-1.84,46.17-1.84,70.19,0,13.19.18,20.47.53,21.83.61,2.37,1.71,5.02,3.3,7.95,1.58,2.92,3.27,5.5,5.04,7.72,1.78,2.22,3.2,3.33,4.26,3.33.18,0,.35-.12.53-.36.18-.25.31-.49.4-.76.09-.26.13-.48.13-.66-.39-11.04-.6-21.45-.6-31.26,0-11.92.31-22.93.93-33.04,1.05-18.56,2.5-34.03,4.35-46.43,5.72-.53,11.28-.79,16.69-.79,2.99,0,4.84-.67,5.54-1.98Z"/>
          <path class="cls-2" d="M928.08,741.47c.18.05.35.11.47.2-.11-.1-.29-.16-.47-.2Z"/>
          <path class="cls-2" d="M1007.83,745.15c-2.44-5.06-5.3-9.9-8.74-14.38-6.14-8.01-13.39-14.67-22.7-18.82-7.89-3.52-16.1-4.71-24.67-3.04-12.46,2.41-22.29,9.11-30.44,18.56-2.73,3.16-5.19,6.52-7.38,10.06.37-.29.72-.4,1.04-.4-.33,0-.68.11-1.04.4-3.71,5.86-6.99,11.91-9.83,18.15-1.22,2.65-2.35,5.34-3.42,8.07-.14.36-.28.73-.42,1.1-2.18,5.44-5.4,10.46-9.67,15.03l.53-10.55c.44-8.75.66-17.15.66-25.19,0-10.86-1.01-18.01-3.04-21.44-3.34-4.87-6.02-7.31-8.04-7.31-1.58,0-3.33,1.84-5.24,5.54-1.91,3.69-3.91,8.38-5.97,14.05-2.06,5.67-4.14,11.63-6.23,17.87-2.09,6.24-4.12,12.07-6.1,17.48-1.98,5.41-3.85,9.83-5.64,13.29-1.78,3.45-3.4,5.18-4.85,5.18-1.1,0-2-1.82-2.7-5.44-.7-3.63-1.2-8.01-1.48-13.15-.29-5.15-.43-9.98-.43-14.51,0-9.5.73-18.33,2.18-26.51,1.49-8.54,2.95-13.48,4.36-14.85.92-.79,1.39-1.42,1.39-1.91,0-.53-.84-1.34-2.51-2.44-4.44-2.91-8.53-4.36-12.27-4.36l-.73-.07c-.39,0-.88.1-1.45.26-.57.18-1.24.8-2.01,1.85-.77,1.05-1.45,2.8-2.05,5.24-.59,2.44-1.09,5.84-1.48,10.19-.39,4.36-.59,10.01-.59,16.96,0,12.05,1.28,22.72,3.85,32.02,2.57,9.3,5.82,16.58,9.76,21.83,3.93,5.25,7.9,7.89,11.91,7.89,2.24,0,4.31-1.35,6.23-4.06,1.91-2.7,3.71-6.1,5.41-10.19,1.69-4.09,3.29-8.29,4.79-12.59,1.8-5.28,3.56-9.83,5.28-13.65,1.71-3.83,3.42-5.74,5.15-5.74s2.7,4.79,2.7,14.38c0,7.38-.45,13.58-1.33,18.6-4.57,4.27-8.92,8.22-13.06,11.87-15.74,13.5-23.79,22.78-24.14,27.84l-.26,4.21c0,6.3,4.81,13.64,14.44,22.03,2.41,2.12,4.44,3.17,6.07,3.17,3.92,0,7.63-2.75,11.14-8.25,3.52-5.5,6.53-12.59,9.04-21.28,2.51-8.68,4.27-17.97,5.28-27.86.08-.76,1.78-1.4,2.36-1.74,11.44-11.26,17.64-21.79,22.67-37.12.48-1.54.99-3.07,1.56-4.58.1-.26.19-.51.29-.77,1.98-5.18,4.35-10.14,7.02-15.02.03-.06.05-.11.08-.17-.03.06-.05.12-.08.18.13-.2.26-.4.39-.6,1.72-2.63,3.44-5.25,5.65-7.53,7.51-7.75,16.48-11.94,27.47-11.21,8.22.54,15.75,3.12,22.84,7.25,2.94,1.71,5.65,3.71,8.2,5.93.58.51,1.22.97,1.65,1.83-2.58-.99-5.01-2.01-7.5-2.87-11.75-4.05-23.66-6.03-35.99-2.9-6.56,1.67-12.02,5.15-16.63,10.03-.23.25-.41.47-.5.72-.17.4-.11.83.33,1.4,7.54,10.08,17.76,15.03,30.15,15.95,7.49.55,14.69-1.17,21.91-2.72,7.89-1.69,15.81-3.13,23.93-2.61,2.12.13,4.23.29,6.41.44-.52-3.3-2.1-6.15-3.48-9.01ZM868.27,830.82c-2.6,5.89-4.96,9.83-7.1,11.8-2.13,1.98-3.9,2.97-5.3,2.97-1.33,0-2.62-.59-3.9-1.78-1.41-1.49-2.11-3.12-2.11-4.87,0-3.92,3.52-9.11,10.55-15.57,4.49-4.05,9.5-8.2,15.04-12.47-2.2,7.38-4.6,14.03-7.19,19.92ZM917.4,738.18c-.3-.09-.59-.25-.89-.44.3.17.59.34.89.43.58.17,1.16.38,1.74.6-.58-.21-1.16-.42-1.74-.59Z"/>
        </g>
        <g>
          <path class="cls-1" d="M889.33,617.43c-3.15-3.03-5.55-5.29-7.19-6.81l-19.48,19.48c2.52,2.27,5.96,5.64,10.31,10.12,4.35,4.48,6.15,8.73,5.39,12.77,0,.13.06.25.19.38.12.13.25.13.38,0l17.4-17.59c2.27-2.52,2.46-5.45.57-8.79-1.89-3.34-4.42-6.53-7.57-9.55Z"/>
          <path class="cls-1" d="M262.81,631.93c-3.15-3.02-5.61-5.36-7.37-6.99l-17.11,17.29c-.11-.25-.24-.49-.38-.75-1.83-3.34-4.32-6.51-7.47-9.55-3.16-3.02-5.61-5.36-7.37-6.99l-19.48,19.48c2.64,2.27,6.1,5.67,10.39,10.22,4.29,4.53,6.05,8.76,5.31,12.66,0,.25.05.38.17.38.13.13.25.13.38,0l17.59-17.59v.19c.83-.98,1.37-2.02,1.59-3.13,2.07,2,4.54,4.5,7.41,7.48,4.34,4.53,6.13,8.76,5.39,12.66-.13.25-.13.38,0,.38.13.13.25.13.38,0l17.58-17.59v.19c2.15-2.53,2.3-5.45.48-8.8-1.83-3.34-4.32-6.51-7.47-9.55Z"/>
          <path class="cls-1" d="M967.91,459.79c4.35,4.48,6.15,8.73,5.39,12.77,0,.13.06.25.19.38.12.13.25.13.38,0l17.4-17.59c2.27-2.52,2.46-5.45.57-8.79-1.89-3.34-4.42-6.53-7.57-9.55-3.15-3.03-5.55-5.29-7.19-6.81l-19.48,19.48c2.52,2.27,5.96,5.64,10.31,10.12Z"/>
          <path class="cls-1" d="M772.78,459.79c4.35,4.48,6.15,8.73,5.39,12.77,0,.13.06.25.19.38.12.13.25.13.38,0l17.4-17.59c2.27-2.52,2.46-5.45.57-8.79-1.89-3.34-4.42-6.53-7.57-9.55-3.15-3.03-5.55-5.29-7.19-6.81l-19.48,19.48c2.52,2.27,5.96,5.64,10.31,10.12Z"/>
          <path class="cls-1" d="M737.26,459.79c4.35,4.48,6.15,8.73,5.39,12.77,0,.13.06.25.19.38.12.13.25.13.38,0l17.4-17.59c2.27-2.52,2.46-5.45.57-8.79-1.89-3.34-4.42-6.53-7.57-9.55-3.15-3.03-5.55-5.29-7.19-6.81l-19.48,19.48c2.52,2.27,5.96,5.64,10.31,10.12Z"/>
          <path class="cls-1" d="M683.32,459.79c4.35,4.48,6.15,8.73,5.39,12.77,0,.13.06.25.19.38.12.13.25.13.38,0l17.4-17.59c2.27-2.52,2.46-5.45.57-8.79-1.89-3.34-4.42-6.53-7.57-9.55-3.15-3.03-5.55-5.29-7.19-6.81l-19.48,19.48c2.52,2.27,5.96,5.64,10.31,10.12Z"/>
          <path class="cls-1" d="M647.79,459.79c4.35,4.48,6.15,8.73,5.39,12.77,0,.13.06.25.19.38.12.13.25.13.38,0l17.4-17.59c2.27-2.52,2.46-5.45.57-8.79-1.89-3.34-4.42-6.53-7.57-9.55-3.15-3.03-5.55-5.29-7.19-6.81l-19.48,19.48c2.52,2.27,5.96,5.64,10.31,10.12Z"/>
          <path class="cls-1" d="M1028.09,479.41h-33.17c-6.07-.54-11,5.55-14.78,18.26-3.8,12.7-6.36,35.41-7.69,68.14-9.9-5.8-20.59-8.84-32.1-9.11l-15.97.06h-.51c.21-.81.38-1.61.51-2.4.08-.4.14-.78.19-1.16,1.45-10.41-.51-19.67-5.86-27.79-5.36-8.14-11.89-15.33-19.58-21.56-7.69-6.24-14.27-11.76-19.75-16.56-5.5-4.78-7.68-9.14-6.53-13.05.13-.13.13-.25,0-.38h-.38l-23.65,23.65c-3.66,4.16-2.64,8.85,3.04,14.1,5.67,5.23,12.89,11.38,21.66,18.43,8.76,7.07,15.81,15.29,21.18,24.68.08.14.16.3.25.44.4.73.78,1.48,1.11,2.23,2.21,4.77,3.23,9.9,3.05,15.41-.02.75-.05,1.49-.13,2.26-.11,1.57-.33,3.16-.65,4.8-.46,2.43-1.14,4.93-2.03,7.48h-.02c-3.7-3.94-7.12-7.25-10.23-9.93-1.81-1.54-4.12-2.35-6.48-2.35h-49.09c-3.29-.05-8.69-.05-14.32,0-.87,0-1.76,0-2.64.02,0,0,0-.02.02-.02,5.66-7.87,8.96-15.14,9.9-21.85,1.45-10.41-.51-19.67-5.86-27.79-5.36-8.14-11.89-15.33-19.58-21.56-7.69-6.24-14.29-11.76-19.77-16.56-5.48-4.78-7.66-9.14-6.52-13.05.11-.13.11-.25,0-.38h-.38l-23.65,23.65c-3.66,4.16-2.64,8.85,3.04,14.1,5.67,5.23,12.89,11.38,21.64,18.43,8.77,7.07,15.83,15.29,21.18,24.68,3.51,6.13,4.94,12.92,4.31,20.34,0,.11,0,.22-.02.33-.35,3.81-1.24,7.8-2.69,11.95-3.07-3.27-5.94-6.1-8.63-8.5-.54-.49-1.08-.97-1.61-1.41-1.81-1.56-4.12-2.37-6.5-2.37h-49.07c-3.1-.05-8.06-.05-13.35-.02,5.67-7.87,8.96-15.14,9.9-21.83,1.45-10.41-.51-19.67-5.86-27.81-5.36-8.14-11.89-15.32-19.58-21.56-7.69-6.25-14.29-11.76-19.77-16.54-5.48-4.8-7.66-9.15-6.52-13.06.11-.11.11-.24,0-.37h-.38l-23.65,23.63c-3.65,4.16-2.64,8.87,3.04,14.1s12.89,11.38,21.64,18.45c8.77,7.06,15.83,15.29,21.18,24.68,3.51,6.15,4.94,12.92,4.31,20.34,0,.08-.02.14-.02.22-.05.79-.14,1.59-.27,2.4-.46,3.12-1.26,6.34-2.42,9.66-2.99-3.19-5.8-5.97-8.42-8.33-.6-.54-1.21-1.08-1.8-1.57-1.8-1.54-4.08-2.38-6.45-2.38h-58.92c-3.85.08-6.88.25-9.14.56-2.24.29-4.17.89-5.82,1.79,7.67-8.31,10.37-18.16,8.1-29.55-2.27-11.41-7.09-22.44-14.46-33.1-7.37-10.65-14.95-18.94-22.71-24.87-7.75-5.93-13.33-7.56-16.73-4.91l-25.9,25.71c-11.98,12.49-19.09,23.96-21.28,34.44-2.21,10.46-1.33,19.72,2.64,27.79,3.97,8.07,9.17,14.65,15.61,19.77,6.44,5.1,12.3,8.41,17.59,9.93-25.09,15.75-50.44,23.98-76.04,24.68-25.58.68-50.8-2.91-75.64-10.79-24.84-7.88-48.67-16.8-71.49-26.76-18.8-8.06-36.47-14.87-53.06-20.42-16.57-5.55-31.77-8.1-45.58-7.66-13.81.44-25.95,5.7-36.41,15.8l-20.05,20.04v.38c.13.13.25.13.38,0,10.47-7.31,22.34-10.74,35.66-10.31,13.3.45,27.76,3.35,43.4,8.71,15.64,5.36,32.21,11.82,49.74,19.39,19.42,8.33,39.63,16.1,60.62,23.36,20.99,7.25,42.37,11.84,64.12,13.81,21.74,1.95,43.49-.67,65.25-7.85,21.74-7.2,43.08-21.07,64.01-41.62l25.73-25.9c-4.91-.13-11.41-2.97-19.48-8.52-8.07-5.55-14.43-13.33-19.1-23.36-4.66-10.03-4.35-21.77.95-35.26,7.06,2.89,15,9.49,23.82,19.75,8.84,10.28,15.57,21.79,20.25,34.52,4.53,12.62,3.91,23.96-1.89,34.06l-1.06,1.1-.13.13-2.78,2.78c-.06.06-.13.16-.14.27-.03.08-.05.16-.05.25h0s0,0,0,0l.59.02c1.14-.65,2.86-1.16,5.18-1.54h0c4.34-.72,10.74-.96,19.19-.7h284.82c3.69-3.66,7.82-7.74,12.39-12.28.17-.19.37-.37.54-.56,4.35-4.51,8.03-8.87,11.03-13.06,3.8-5.26,6.52-10.27,8.18-15,.24.08.46.16.7.25,13.06,4.48,24.2,12.16,33.39,23.01,9.36,11.06,14.27,23.76,14.72,38.12h36.65c-.02-50.64,1.68-86.5,5.07-107.54,3.38-21.04,8.34-32.32,14.86-33.83.08-.09.13-.22.13-.4-.1-.09-.17-.19-.27-.27Z"/>
        </g>
      </g>
    </g>
  </g>
</svg>