<?xml version="1.0" encoding="UTF-8"?>
<svg xmlns="http://www.w3.org/2000/svg" version="1.1" viewBox="0 0 1200 1200">
  <defs>
    <style>
      .cls-1 {
        fill: #fff;
      }

      .cls-2, .cls-3 {
        fill: #311910;
      }

      .cls-3 {
        fill-rule: evenodd;
      }
    </style>
  </defs>
  <!-- Generator: Adobe Illustrator 28.7.1, SVG Export Plug-In . SVG Version: 1.2.0 Build 142)  -->
  <g>
    <g id="Layer_1">
      <g>
        <path class="cls-3" d="M465.46,383.18c-1.85,3.12-4.05,6.07-6.58,8.77-1.13,1.2-2.32,2.35-3.58,3.44-7.45,6.46-20.41,12.25-34.64,12.87-4,.17-8.1-.06-12.21-.8-8.76-1.58-17.54-5.47-25.46-12.64-9.68-8.76-18.05-22.43-23.45-42.76,5.23-2.18,15.04-5.67,25.81-7.81,20.25-4.03,51.82-3.89,51.9,23.25.03,10.73-7.83,23.87-20.95,24.47-11.11.51-24.58-4.04-31.05-11.13.34.42,11.22,13.45,30.49,13.93.46.02.93.02,1.4.02,1.17,0,2.33-.08,3.47-.22,6.12-.74,11.69-3.3,16.11-7,4.68-3.92,7.72-8.83,9.51-14.23,5.36,5.03,12.03,8.45,19.24,9.86Z"/>
        <path class="cls-2" d="M474.76,483.17c-11.94,16.87-31.8,33.58-48.34,40.7l-8.2,3.89c-1.01.48-2.1.72-3.2.72s-2.18-.24-3.2-.72l-8.2-3.89c-16.54-7.11-36.39-23.83-48.34-40.7-15.14-21.39-22-47.38-18.82-71.31.27-2.06,1.39-3.91,3.08-5.11,1.7-1.2,3.81-1.64,5.84-1.21,23.62,4.96,45.85,20.06,61,41.45,2.27,3.21,4.39,6.57,6.3,9.97,1.25,2.24,2.38,4.99,3.42,7.95,1.11,2.88,2.04,5.88,2.73,8.97.21.74.41,1.49.6,2.23.26-3.11.98-19.77-11.69-35.96-.07-9.85-.13-20.13-.18-30.26,3.86.66,7.84.99,11.86.99,1.02,0,2.05-.02,3.07-.07.14,30.68.4,62.5.85,79.59.11,4.12-3.14,7.54-7.26,7.65-.07,0-.13,0-.2,0-3.36,0-6.21-2.23-7.14-5.31-.38-.6-.69-1.26-.89-1.98-.51-1.8-1.07-3.97-1.65-6.26-1.71-6.69-4.05-15.84-6.52-20.26-1.65-2.94-3.48-5.85-5.45-8.63-11.18-15.79-26.73-27.56-43.58-33.21-.27,17.77,5.66,36.35,16.83,52.14,10.38,14.66,28.1,29.65,42.16,35.65.09.04.18.08.27.12l5.13,2.43,5.13-2.43c.09-.04.18-.08.27-.12,14.05-6,31.78-21,42.16-35.65,11.19-15.81,17.12-34.42,16.83-52.2-15.4,5.01-27.34,14.58-38.84,30.83-2.38,3.36-7.04,4.15-10.4,1.78-3.36-2.38-4.16-7.03-1.78-10.4,15.65-22.1,32.99-34.13,56.26-39.01,2.03-.43,4.15.01,5.84,1.21,1.7,1.2,2.81,3.05,3.09,5.11,3.18,23.93-3.68,49.92-18.82,71.31Z"/>
      </g>
      <path class="cls-2" d="M417.29,573.49c-23.73,0-49.03-10.02-73.18-28.97-24.25-19.03-46.66-46.78-65.12-80.56v61.56h-25.77v-119.67h26.45l.52,1.21c39.41,91.72,86.6,140.2,136.45,140.2,3.67,0,7.41-.26,11.12-.78,26.69-3.72,38.35-29.61,43.43-50.68l.11-.47.32-.37c2.6-2.99,4.99-6.02,7.09-8.99,8.76-12.37,15.04-26.59,18.17-41.11l3.95.29c.32,4.88.46,9.81.41,14.65-.44,35.33-8.98,64.59-24.7,84.64-14.9,19-35.39,29.04-59.26,29.04Z"/>
      <g>
        <path class="cls-2" d="M452.14,810.79c-1.68,0-4.06-.5-7.29-1.52-3.04-.95-5.92-2.06-8.53-3.3-2.54-1.2-4.9-2.6-4.9-4.71,0-1.1.37-2.71,2.12-4.13l.1-.08.1-.06c.3-.19.5-.39.56-.57,3.36-9.58,5.72-21.36,7.01-35,1.44-15.24,2.17-32.15,2.17-50.27,0-9.31-.06-16.85-.19-23.04l-.06-7.09c-.48-.64-.95-1.26-1.41-1.86-.64-.83-1.17-1.55-1.59-2.18-.64-.94-.96-1.81-.96-2.63,0-3.24,4.35-4.06,5.78-4.34,2.33-.5,5.09-.76,8.15-.76,4.56,0,8.83.53,12.67,1.57,2.12.45,3.41,1.85,3.5,3.77.49,2.28,4.54,13.87,20.71,55.29,4.93,12.65,9,23.23,12.16,31.62-.03-31.18-.18-58.97-.46-82.74-.82-4.26-1.4-5.11-1.46-5.2-.95-1.08-1.44-2.2-1.44-3.31,0-2.45,1.77-4.59,5.41-6.55,3.05-1.63,6.26-2.97,9.57-3.97,4.53-1.39,6.02-1.57,6.81-1.57,2.84,0,4.69,1.77,5.08,4.85.19,1.68.28,3.48.28,5.39l-.06,3.41c0,7.4-.65,17.41-1.92,29.72-2.88,29.83-4.34,58.94-4.34,86.52v3.63c0,.75-.28,1.51-.87,2.32-.52.71-1.48,1.53-3.18,1.53-1.24,0-3.83-.32-11.85-3.08-3.27-1.09-6.44-2.03-9.42-2.79-3.31-.95-5.27-2.38-6.05-4.39-1.56-3.63-4.88-10.45-9.81-20.2-5.26-10.46-10.75-21.73-16.35-33.6l-.25,14.4c-.31,22.97-.59,37.29-.85,43.78-.13,3.35-.48,6.56-1.02,9.52-.49,2.85-1.99,11.6-7.9,11.6Z"/>
        <path class="cls-2" d="M585.77,803.8c-4.92,0-9.19-3.45-12.69-10.25-1.97-3.84-3.36-8.12-4.15-12.81-1.25,3.58-2.29,6.39-3.13,8.48-1.66,4.1-3.66,7.52-5.96,10.16-2.54,2.93-5.73,4.42-9.49,4.42-5.24,0-9.5-2.06-12.65-6.12-5.13-6.52-7.74-16.41-7.74-29.39,0-1.53.1-4.39.3-8.47.2-4.22,1.13-9.88,2.78-16.82,1.66-6.96,3.93-13.41,6.74-19.18,2.87-5.87,6.35-10.7,10.34-14.35,4.19-3.83,8.9-5.78,14.01-5.78,2.98,0,5.58.83,7.71,2.46,2.01,1.54,3.67,3.5,4.96,5.84.1.18.2.37.3.55.6-2.59,1.54-4.95,3.72-4.95.53,0,1.36.1,4.54,1.32,2.1.8,4.16,1.62,6.12,2.42,2.83,1.17,3.6,1.63,4.02,1.96.73.57,1.17,1.13,1.37,1.76.14.49.19.85.19,1.2,0,.48-.1,1-.29,1.53-2.47,9.09-4.46,19.01-5.93,29.49-.95,6.73-1.43,13.21-1.43,19.24,0,3.3.27,7.98.82,13.93.5,5.63,2.68,10.3,6.64,14.28h0c1.4,1.01,1.7,2.14,1.7,2.92,0,1.64-1.47,2.65-2.9,3.41-1.38.73-2.97,1.37-4.72,1.9-1.84.56-3.59.85-5.19.85ZM567.56,718.38c-1.92,0-4.18,2.41-6.36,6.78-2.54,5.1-4.79,11.48-6.67,18.96-3.55,13.96-5.35,26.53-5.35,37.37,0,1.54.1,3.95.29,7.17.18,3.1,1.1,3.1,1.4,3.1,2.45,0,4.66-3.14,6.08-5.77,2.39-4.42,4.64-9.96,6.68-16.47,1.87-5.94,3.62-12.02,5.23-18.08-5.95-1.53-8.32-3.15-8.32-5.56,0-1.16.52-2.42,1.63-3.97.5-.7,1.4-2.36,2.85-6.28,2.33-5.98,3.5-10.8,3.5-14.35,0-.33-.02-1.07-.13-2.71,0-.03,0-.05,0-.07-.1-.04-.35-.11-.83-.11Z"/>
        <path class="cls-2" d="M643.94,803.8c-7,0-12.76-1.91-17.2-5.7.01.09.06.39.06.39l.14,1.35v.11c0,.77-.15,1.49-.45,2.14-.55,1.15-1.71,1.72-3.46,1.72-6.09,0-10.52-.71-13.54-2.19-4.76-2.22-7.19-5.2-7.19-8.85,0-.5.07-.98.21-1.43,3.84-14.34,5.78-33.97,5.78-58.33,0-11.76-.5-21.75-1.49-29.69-1.76-14.45-4.01-23.82-6.68-27.84-.95-1.53-1.39-2.89-1.39-4.21,0-.9.27-1.71.8-2.33.42-.49,1.29-1.37,4.17-3.6,2.1-1.63,4.49-3.22,7.12-4.73,2.89-1.67,5.37-2.48,7.59-2.48,2.99,0,4.2,3.58,4.92,6.7.82,3.58,1.44,9.88,1.87,19.25.32,7.2.52,16.92.59,29,1.32-2.52,2.88-4.63,4.65-6.29,2.17-2.05,4.75-3.09,7.64-3.09,13.47,0,23.27,6.82,29.13,20.26,3.4,7.93,5.12,17.27,5.12,27.77,0,4.14-.38,9.04-1.14,14.56-.76,5.55-2.37,11.34-4.78,17.21-2.44,5.93-5.54,10.8-9.21,14.48-3.88,3.87-8.34,5.83-13.26,5.83ZM634.37,762.85c1.07.57,1.68,1.61,1.68,2.87v.13c0,.83-.2,1.83-.64,3.13-.59,1.66-.88,4.25-.88,7.74,0,1.95.18,4.23.54,6.78.33,2.38,1.18,4.62,2.53,6.67,1.15,1.75,2.81,2.56,5.22,2.56,1.32,0,2.72-2.49,3.73-6.65,1.58-6.39,2.38-15,2.38-25.59,0-5.89-.34-12.33-1.02-19.16-.67-6.77-1.88-12.88-3.61-18.18-1.43-4.41-3.15-6.84-4.85-6.84-.84,0-3.38,0-6,5.24-3.75,7.74-5.65,20.67-5.65,38.41v1.47c.49.06,1.09.14,1.84.25,3.1.43,4.14.81,4.72,1.16Z"/>
        <path class="cls-2" d="M697.96,818.44c-1.77,0-3.56-1.26-5.81-4.08-1.86-2.31-3.62-5.01-5.25-8.02-1.64-3.04-2.81-5.86-3.48-8.39-.18-.69-.59-2.3-.59-22.34,0-23.18.58-46.04,1.73-68-4.16.33-7.75.48-10.95.48-1.86,0-3.51-.51-4.89-1.5-.59-.42-2.38-1.71-2.38-3.74.09-5.54.62-9.59,1.63-12.41,2.07-5.56,4.01-7.93,6.5-7.93,1.53,0,2.9.63,3.99,1.81.47.19,2.13.69,7.66,1.43l.41-4.4c.17-1.54.26-3.13.26-4.76,0-.84-.04-2.17-.13-3.92-.09-1.83-.23-3.85-.42-5.99-.21-2.44-.31-4.13-.31-5.32v-.22l.05-.21c.28-1.25,1.34-2.75,4.79-2.75,2.95,0,6.64.86,11.27,2.63,3.56,1.31,6.41,2.99,8.47,4.98,1.02,1.02,1.53,2.08,1.53,3.16,0,.55-.11,1.31-.38,2.53-.65,2.46-1.79,7.93-3.39,16.35,10.64.8,19.83,1.21,27.36,1.21h1.58c1.4,0,2.52.38,3.32,1.13.84.8,1.26,1.67,1.26,2.58,0,1.29-.54,3.1-3.13,4.37-1.44.71-3.14,1.35-5.04,1.91-5.09,1.71-5.85,2.91-5.92,3.04-1.09,2.05-3.48,3.04-7.31,3.04-4.83,0-9.84.22-14.93.64-1.72,12-3.11,27.03-4.11,44.69-.61,10.04-.92,21.12-.92,32.93,0,9.81.2,20.3.59,31.19,0,.47-.08.89-.23,1.36-.14.44-.36.87-.66,1.29-.78,1.05-1.68,1.2-2.16,1.2Z"/>
        <path class="cls-2" d="M770.45,803.8c-4.92,0-9.19-3.45-12.69-10.25-1.97-3.83-3.36-8.12-4.15-12.81-1.23,3.53-2.28,6.37-3.13,8.48-1.66,4.1-3.66,7.52-5.96,10.16-2.54,2.93-5.73,4.42-9.48,4.42-5.25,0-9.51-2.06-12.66-6.12-5.14-6.52-7.74-16.41-7.74-29.39,0-1.53.1-4.39.3-8.47.2-4.23,1.13-9.89,2.78-16.82,1.66-6.97,3.94-13.42,6.75-19.18,2.86-5.86,6.33-10.69,10.33-14.35,4.19-3.83,8.9-5.78,14.01-5.78,2.99,0,5.59.83,7.72,2.46,2,1.54,3.67,3.5,4.96,5.84.1.18.2.37.3.55.6-2.59,1.54-4.95,3.72-4.95.53,0,1.35.1,4.54,1.32,2.17.83,4.17,1.62,6.12,2.42,2.83,1.17,3.6,1.63,4.02,1.96.49.38,1.16.98,1.39,1.83.1.32.17.73.17,1.12,0,.48-.1.99-.28,1.53-2.47,9.09-4.46,19.02-5.93,29.49-.95,6.73-1.43,13.21-1.43,19.24,0,3.3.27,7.98.82,13.93.5,5.63,2.68,10.3,6.64,14.28h0c1.4,1,1.71,2.13,1.71,2.92,0,1.64-1.47,2.65-2.9,3.41-1.36.73-2.95,1.37-4.72,1.9-1.84.56-3.59.85-5.19.85ZM752.24,718.38c-1.92,0-4.18,2.41-6.36,6.78-2.54,5.1-4.79,11.48-6.67,18.96-3.55,13.96-5.35,26.53-5.35,37.37,0,1.52.1,4,.29,7.17.18,3.1,1.1,3.1,1.4,3.1,2.45,0,4.66-3.14,6.09-5.78,2.39-4.43,4.64-9.97,6.67-16.47,1.86-5.94,3.62-12.01,5.23-18.08-5.95-1.53-8.32-3.15-8.32-5.56,0-1.16.52-2.42,1.63-3.97.5-.7,1.4-2.36,2.85-6.29,2.33-5.98,3.5-10.8,3.5-14.35,0-.33-.02-1.07-.13-2.71,0-.03,0-.05,0-.07-.1-.04-.34-.11-.83-.11Z"/>
        <path class="cls-2" d="M808.18,818.44c-1.76,0-3.56-1.26-5.82-4.08-1.86-2.33-3.62-5.03-5.24-8.02-1.65-3.04-2.82-5.86-3.48-8.4-.18-.69-.59-2.29-.59-22.33,0-23.13.58-46,1.73-68-4.16.33-7.75.48-10.94.48-1.88,0-3.52-.51-4.9-1.51-.58-.42-2.38-1.71-2.38-3.73.09-5.52.63-9.57,1.63-12.41,2.06-5.56,4-7.93,6.5-7.93,1.53,0,2.9.63,3.99,1.81.47.19,2.13.69,7.66,1.43l.41-4.4c.17-1.53.25-3.12.25-4.76,0-.85-.04-2.17-.13-3.92-.08-1.65-.22-3.56-.43-5.99-.2-2.25-.31-4.04-.31-5.32v-.22l.05-.21c.28-1.26,1.34-2.75,4.79-2.75,2.95,0,6.64.86,11.27,2.63,3.57,1.31,6.42,2.99,8.46,4.99,1.02,1.02,1.52,2.07,1.52,3.15,0,.35-.04,1-.37,2.53-.65,2.43-1.78,7.9-3.4,16.35,10.64.8,19.84,1.21,27.37,1.21h1.58c1.4,0,2.52.38,3.32,1.13.84.83,1.26,1.68,1.26,2.58,0,1.29-.54,3.1-3.13,4.37-1.46.71-3.15,1.35-5.03,1.91-5.09,1.71-5.85,2.91-5.92,3.04-1.09,2.05-3.48,3.04-7.31,3.04-4.83,0-9.85.22-14.94.64-1.72,12.03-3.1,27.06-4.1,44.69-.62,9.98-.93,21.06-.93,32.93,0,9.65.2,20.14.6,31.19,0,.47-.08.89-.23,1.36-.14.44-.36.87-.67,1.29-.77,1.05-1.68,1.2-2.15,1.2Z"/>
        <path class="cls-2" d="M928.57,739.53c.52.13.94.33,1.27.62l-2.13,2.52.86-3.14Z"/>
        <path class="cls-2" d="M863.65,859.66c-2.16,0-4.57-1.2-7.39-3.67-10.18-8.87-15.13-16.57-15.13-23.54v-.12s.27-4.21.27-4.21c.25-3.63,3.1-10.6,24.83-29.23,3.95-3.48,8.15-7.31,12.5-11.35.79-4.8,1.19-10.71,1.19-17.6,0-8.43-.74-11.29-1.12-12.22-.61.4-1.65,1.6-2.9,4.4-1.67,3.7-3.42,8.24-5.21,13.48-1.49,4.29-3.11,8.56-4.83,12.71-1.75,4.22-3.64,7.78-5.62,10.58-2.3,3.25-4.95,4.9-7.86,4.9-4.64,0-9.19-2.92-13.51-8.69-4.06-5.41-7.46-12.98-10.09-22.5-2.61-9.42-3.93-20.37-3.93-32.56,0-7,.2-12.77.6-17.14.4-4.39.91-7.91,1.53-10.47.67-2.74,1.45-4.69,2.38-5.96,1.05-1.43,2.01-2.25,3.01-2.57.85-.25,1.49-.36,2.06-.36h.1l.73.07c4.09.02,8.55,1.6,13.26,4.68,2.05,1.35,3.42,2.57,3.42,4.11,0,1.42-1.07,2.54-2.02,3.37-.43.46-1.83,2.74-3.75,13.73-1.43,8.04-2.15,16.84-2.15,26.17,0,4.52.14,9.36.43,14.4.27,4.99.76,9.32,1.45,12.89.41,2.14.82,3.17,1.06,3.64.46-.34,1.39-1.29,2.75-3.91,1.74-3.37,3.6-7.76,5.54-13.05,1.92-5.23,3.91-10.93,6.08-17.43,2.04-6.1,4.14-12.12,6.25-17.92,2.08-5.73,4.13-10.54,6.08-14.29,2.34-4.52,4.57-6.62,7.02-6.62,2.79,0,5.87,2.6,9.69,8.18l.07.11c2.23,3.78,3.32,11.12,3.32,22.46,0,8.05-.22,16.56-.66,25.29l-.23,4.56c2.28-3.11,4.13-6.42,5.51-9.88.13-.34.27-.72.41-1.08,1.1-2.82,2.26-5.58,3.46-8.18,2.85-6.25,6.2-12.43,9.95-18.37h0c2.23-3.62,4.78-7.1,7.56-10.32,9.14-10.59,19.47-16.87,31.58-19.22,2.66-.52,5.36-.78,8.01-.78,5.96,0,11.97,1.33,17.86,3.96,8.77,3.9,16.44,10.26,23.47,19.43,3.36,4.39,6.28,9.2,8.95,14.73.19.4.39.79.58,1.19,1.27,2.58,2.58,5.24,3.07,8.38l.39,2.48-4.71-.33c-1.41-.1-2.8-.2-4.19-.28-1.08-.07-2.19-.1-3.31-.1-7.04,0-14.05,1.38-20.07,2.67l-1.47.32c-5.79,1.26-11.77,2.55-17.93,2.55-1.04,0-2.07-.04-3.07-.11-13.4-.99-24.03-6.62-31.61-16.74-1.04-1.35-.91-2.55-.6-3.32.22-.57.57-1,.9-1.35,5.06-5.36,10.98-8.92,17.6-10.61,4.19-1.06,8.55-1.6,12.96-1.6,6.22,0,12.81,1.06,20.05,3.22-7.16-4.16-14.3-6.42-21.85-6.92-.77-.05-1.55-.08-2.3-.08-8.91,0-16.63,3.5-23.6,10.69-2.11,2.17-3.79,4.74-5.41,7.23-.07.11-.18.28-.28.44l-.1.15c-2.75,5.05-4.99,9.84-6.82,14.63l-.29.76c-.5,1.32-1,2.78-1.53,4.47-5.29,16.1-11.78,26.74-23.18,37.95l-.18.17-.21.13c-.16.09-.38.2-.63.33-.2.1-.56.28-.81.43-1.03,9.78-2.81,19.09-5.29,27.68-2.55,8.83-5.67,16.17-9.27,21.8-3.89,6.08-8.2,9.17-12.83,9.17ZM853.38,842.39c.88.81,1.7,1.2,2.49,1.2.4,0,1.58-.24,3.94-2.43,1.92-1.78,4.15-5.53,6.63-11.14,1.8-4.1,3.53-8.64,5.16-13.53-3.54,2.85-6.83,5.65-9.84,8.37-8.18,7.51-9.89,11.81-9.89,14.08,0,1.22.5,2.35,1.52,3.45Z"/>
      </g>
      <path class="cls-1" d="M499.25,459.79c-1.81,146.51-141.29,152.63-222.26-3.86v67.58h-21.77v-115.67h23.13c24.27,56.47,74.62,151.05,149.69,140.61,25.21-3.51,38.84-26.24,45.1-52.19,2.61-3.01,5.04-6.08,7.21-9.14,9.06-12.8,15.33-27.17,18.49-41.85.31,4.8.45,9.63.41,14.51Z"/>
      <g>
        <path class="cls-1" d="M520.67,660.19c-.92,0-2.99.49-6.23,1.48-3.24.98-6.3,2.27-9.2,3.82-2.91,1.56-4.36,3.16-4.36,4.79,0,.61.32,1.28.96,2.01.63.73,1.28,2.83,1.94,6.3.31,26.52.47,57.89.47,94.12-3.35-9.24-8.68-23.26-16.03-42.08-13.37-34.25-20.32-52.85-20.85-55.8,0-1.1-.66-1.78-1.98-2.05-3.7-1.01-7.76-1.52-12.21-1.52-2.94,0-5.54.25-7.78.73-2.77.53-4.15,1.32-4.15,2.37,0,.4.2.9.62,1.52.41.61.92,1.31,1.52,2.08.59.77,1.19,1.57,1.81,2.41l.07,7.72c.13,6.29.19,13.98.19,23.09,0,18.2-.72,35.02-2.18,50.45-1.32,13.86-3.69,25.68-7.12,35.48-.22.61-.68,1.15-1.39,1.59-.92.75-1.38,1.6-1.38,2.57,0,.75,1.25,1.71,3.76,2.9,2.5,1.19,5.26,2.26,8.28,3.2,3,.95,5.24,1.42,6.69,1.42,2.81,0,4.79-3.32,5.94-9.96.53-2.86.86-5.94.99-9.24.26-6.51.54-21.08.85-43.73l.4-23.02c6.82,14.65,13.48,28.43,19.99,41.36,4.97,9.81,8.27,16.6,9.9,20.38.53,1.36,2.09,2.42,4.68,3.17,3.08.79,6.27,1.74,9.57,2.84,5.75,1.98,9.49,2.97,11.2,2.97.71,0,1.22-.24,1.55-.69.33-.47.49-.85.49-1.16v-3.63c0-27.84,1.46-56.74,4.36-86.73,1.27-12.27,1.91-22.12,1.91-29.55l.06-3.37c0-1.84-.09-3.56-.26-5.14-.26-2.07-1.29-3.1-3.1-3.1Z"/>
        <path class="cls-1" d="M595.59,796.26c-.09,0-.13-.04-.13-.13-4.26-4.27-6.67-9.43-7.22-15.51-.55-6.07-.83-10.77-.83-14.11,0-6.16.48-12.66,1.45-19.52,1.49-10.64,3.49-20.58,6.01-29.82.13-.35.19-.66.19-.92,0-.18-.04-.37-.1-.59-.07-.22-.3-.48-.69-.79-.4-.31-1.58-.87-3.56-1.69-1.98-.82-4-1.62-6.08-2.41-2.06-.79-3.34-1.19-3.82-1.19-.75,0-1.43,1.55-2.05,4.68l-.99,5.21c-.66-2.24-1.57-4.42-2.73-6.52-1.17-2.12-2.64-3.85-4.43-5.22-1.78-1.36-3.94-2.05-6.5-2.05-4.61,0-8.83,1.75-12.66,5.25-3.82,3.49-7.12,8.08-9.9,13.75-2.77,5.67-4.96,11.92-6.59,18.76-1.62,6.83-2.54,12.32-2.73,16.46-.2,4.14-.3,6.93-.3,8.38,0,12.57,2.44,21.96,7.32,28.16,2.77,3.57,6.46,5.35,11.07,5.35,3.17,0,5.83-1.25,7.98-3.73,2.16-2.48,4.03-5.68,5.61-9.6,1.45-3.6,3.51-9.45,6.2-17.54,0,8.36,1.57,15.59,4.72,21.71,3.14,6.11,6.78,9.17,10.91,9.17,1.41,0,2.95-.25,4.62-.76,1.67-.5,3.12-1.09,4.36-1.75,1.23-.66,1.84-1.2,1.84-1.65,0-.48-.33-.94-.99-1.38ZM565.55,770.1c-2.09,6.66-4.36,12.27-6.83,16.82-2.46,4.55-5.08,6.82-7.84,6.82-2.07,0-3.2-1.66-3.4-4.98-.2-3.32-.3-5.75-.3-7.29,0-11.04,1.8-23.66,5.41-37.85,1.93-7.66,4.21-14.11,6.82-19.36,2.62-5.25,5.33-7.89,8.15-7.89,1.8,0,2.75.68,2.84,2.05.09,1.36.13,2.31.13,2.84,0,3.83-1.21,8.84-3.63,15.04-1.23,3.34-2.27,5.59-3.1,6.76-.83,1.16-1.26,2.1-1.26,2.8,0,1.41,2.92,2.77,8.77,4.09-1.76,6.77-3.68,13.49-5.77,20.14Z"/>
        <path class="cls-1" d="M638.08,705.69c-2.38,0-4.47.85-6.27,2.55-1.8,1.69-3.36,3.9-4.68,6.63-1.32,2.72-2.42,5.72-3.3,8.97,0-17.28-.21-30.5-.62-39.67-.42-9.17-1.03-15.46-1.82-18.9-.79-3.43-1.77-5.15-2.97-5.15-1.84,0-4.04.74-6.59,2.21-2.55,1.47-4.85,2.99-6.89,4.58-2.05,1.58-3.33,2.68-3.85,3.29-.22.26-.33.61-.33,1.05,0,.93.35,1.96,1.05,3.1,2.86,4.31,5.19,13.87,7,28.7,1.01,8.09,1.51,18.07,1.51,29.94,0,24.67-1.95,44.3-5.87,58.9-.09.26-.13.55-.13.86,0,2.81,2.02,5.16,6.07,7.05,2.72,1.33,6.95,1.98,12.66,1.98.92,0,1.48-.19,1.65-.56.18-.38.26-.81.26-1.29l-.13-1.25c-.26-1.59-.47-3.71-.6-6.4,4.36,6.33,10.93,9.5,19.72,9.5,4.4,0,8.34-1.75,11.85-5.24,3.49-3.5,6.42-8.1,8.77-13.82,2.34-5.72,3.9-11.29,4.65-16.72.75-5.44,1.12-10.19,1.12-14.29,0-10.28-1.65-19.27-4.95-26.97-5.54-12.71-14.64-19.06-27.3-19.06ZM648.5,786.56c-1.33,5.44-3.21,8.18-5.67,8.18-3.08,0-5.38-1.16-6.89-3.46-1.52-2.31-2.47-4.8-2.84-7.49-.38-2.68-.56-5.03-.56-7.06,0-3.73.32-6.52.98-8.38.35-1.05.54-1.89.54-2.5v-.13c0-.53-.23-.9-.67-1.12-.48-.31-1.82-.61-4.02-.92-1.84-.26-3.03-.4-3.56-.4v-3.3c0-18.11,1.95-31.22,5.87-39.3,2.12-4.22,4.71-6.34,7.79-6.34,2.72,0,4.98,2.74,6.75,8.22,1.78,5.47,3.01,11.67,3.7,18.6.69,6.93,1.03,13.37,1.03,19.35,0,10.82-.82,19.5-2.44,26.06Z"/>
        <path class="cls-1" d="M725.93,701.14c.7-1.32,3.08-2.66,7.12-4.02,1.81-.53,3.38-1.12,4.72-1.78,1.34-.66,2.01-1.52,2.01-2.57,0-.35-.2-.72-.62-1.12-.42-.4-1.06-.59-1.95-.59h-1.58c-8.18,0-18.09-.47-29.74-1.39,1.84-9.76,3.12-15.96,3.82-18.6.22-1.01.33-1.71.33-2.11,0-.54-.31-1.11-.92-1.72-1.85-1.8-4.44-3.32-7.79-4.55-4.36-1.67-7.87-2.5-10.55-2.5-1.71,0-2.66.4-2.84,1.19,0,1.19.11,2.9.3,5.15.2,2.24.34,4.26.43,6.07.09,1.8.13,3.14.13,4.02,0,1.71-.09,3.36-.26,4.94l-.6,6.46c-6.37-.79-9.96-1.49-10.75-2.11-.75-.92-1.65-1.39-2.7-1.39-1.45,0-2.99,2.2-4.62,6.59-.92,2.6-1.42,6.52-1.51,11.74,0,.67.51,1.37,1.55,2.12,1.04.75,2.27,1.12,3.72,1.12,3.74,0,8.1-.23,13.07-.67-1.24,22.78-1.85,46.17-1.85,70.19,0,13.19.18,20.47.53,21.83.62,2.37,1.72,5.02,3.3,7.95,1.58,2.92,3.27,5.5,5.05,7.72,1.77,2.22,3.2,3.33,4.25,3.33.18,0,.35-.12.53-.36.18-.25.31-.49.39-.76.09-.26.13-.48.13-.66-.39-11.04-.59-21.45-.59-31.26,0-11.92.31-22.93.92-33.04,1.05-18.56,2.5-34.03,4.36-46.43,5.72-.53,11.27-.79,16.68-.79,2.99,0,4.84-.67,5.54-1.98Z"/>
        <path class="cls-1" d="M780.27,796.26c-.09,0-.13-.04-.13-.13-4.26-4.27-6.67-9.43-7.22-15.51-.55-6.07-.83-10.77-.83-14.11,0-6.16.48-12.66,1.45-19.52,1.49-10.64,3.5-20.58,6.01-29.82.13-.35.19-.66.19-.92,0-.18-.03-.37-.1-.59-.06-.22-.3-.48-.69-.79-.4-.31-1.58-.87-3.56-1.69-1.98-.82-4-1.62-6.07-2.41-2.07-.79-3.35-1.19-3.83-1.19-.75,0-1.43,1.55-2.05,4.68l-.99,5.21c-.66-2.24-1.57-4.42-2.73-6.52-1.17-2.12-2.64-3.85-4.43-5.22-1.77-1.36-3.94-2.05-6.5-2.05-4.61,0-8.83,1.75-12.66,5.25-3.82,3.49-7.12,8.08-9.89,13.75-2.77,5.67-4.97,11.92-6.6,18.76-1.62,6.83-2.54,12.32-2.73,16.46-.2,4.14-.3,6.93-.3,8.38,0,12.57,2.44,21.96,7.32,28.16,2.77,3.57,6.46,5.35,11.08,5.35,3.16,0,5.82-1.25,7.97-3.73,2.16-2.48,4.03-5.68,5.61-9.6,1.45-3.6,3.52-9.45,6.2-17.54,0,8.36,1.57,15.59,4.72,21.71,3.14,6.11,6.79,9.17,10.91,9.17,1.41,0,2.95-.25,4.62-.76,1.67-.5,3.13-1.09,4.36-1.75,1.23-.66,1.84-1.2,1.84-1.65,0-.48-.32-.94-.99-1.38ZM750.23,770.1c-2.09,6.66-4.36,12.27-6.82,16.82-2.47,4.55-5.08,6.82-7.85,6.82-2.07,0-3.2-1.66-3.4-4.98-.2-3.32-.3-5.75-.3-7.29,0-11.04,1.8-23.66,5.41-37.85,1.93-7.66,4.21-14.11,6.82-19.36,2.62-5.25,5.34-7.89,8.15-7.89,1.8,0,2.75.68,2.84,2.05.09,1.36.13,2.31.13,2.84,0,3.83-1.21,8.84-3.63,15.04-1.23,3.34-2.27,5.59-3.1,6.76-.83,1.16-1.26,2.1-1.26,2.8,0,1.41,2.92,2.77,8.77,4.09-1.76,6.77-3.68,13.49-5.77,20.14Z"/>
        <path class="cls-1" d="M836.15,701.14c.7-1.32,3.07-2.66,7.12-4.02,1.8-.53,3.37-1.12,4.72-1.78,1.34-.66,2.01-1.52,2.01-2.57,0-.35-.21-.72-.62-1.12-.42-.4-1.07-.59-1.95-.59h-1.58c-8.18,0-18.1-.47-29.75-1.39,1.85-9.76,3.13-15.96,3.83-18.6.22-1.01.32-1.71.32-2.11,0-.54-.31-1.11-.92-1.72-1.84-1.8-4.44-3.32-7.78-4.55-4.36-1.67-7.88-2.5-10.56-2.5-1.71,0-2.66.4-2.84,1.19,0,1.19.1,2.9.3,5.15.19,2.24.34,4.26.43,6.07.09,1.8.13,3.14.13,4.02,0,1.71-.09,3.36-.26,4.94l-.6,6.46c-6.38-.79-9.96-1.49-10.75-2.11-.75-.92-1.65-1.39-2.7-1.39-1.46,0-2.99,2.2-4.62,6.59-.92,2.6-1.43,6.52-1.52,11.74,0,.67.52,1.37,1.55,2.12,1.03.75,2.27,1.12,3.72,1.12,3.74,0,8.09-.23,13.06-.67-1.23,22.78-1.84,46.17-1.84,70.19,0,13.19.18,20.47.53,21.83.61,2.37,1.71,5.02,3.3,7.95,1.58,2.92,3.27,5.5,5.04,7.72,1.78,2.22,3.2,3.33,4.26,3.33.18,0,.35-.12.53-.36.18-.25.31-.49.4-.76.09-.26.13-.48.13-.66-.39-11.04-.6-21.45-.6-31.26,0-11.92.31-22.93.93-33.04,1.05-18.56,2.5-34.03,4.35-46.43,5.72-.53,11.28-.79,16.69-.79,2.99,0,4.84-.67,5.54-1.98Z"/>
        <path class="cls-1" d="M928.08,741.47c.18.05.35.11.47.2-.11-.1-.29-.16-.47-.2Z"/>
        <path class="cls-1" d="M1007.83,745.15c-2.44-5.06-5.3-9.9-8.74-14.38-6.14-8.01-13.39-14.67-22.7-18.82-7.89-3.52-16.1-4.71-24.67-3.04-12.46,2.41-22.29,9.11-30.44,18.56-2.73,3.16-5.19,6.52-7.38,10.06.37-.29.72-.4,1.04-.4-.33,0-.68.11-1.04.4-3.71,5.86-6.99,11.91-9.83,18.15-1.22,2.65-2.35,5.34-3.42,8.07-.14.36-.28.73-.42,1.1-2.18,5.44-5.4,10.46-9.67,15.03l.53-10.55c.44-8.75.66-17.15.66-25.19,0-10.86-1.01-18.01-3.04-21.44-3.34-4.87-6.02-7.31-8.04-7.31-1.58,0-3.33,1.84-5.24,5.54-1.91,3.69-3.91,8.38-5.97,14.05-2.06,5.67-4.14,11.63-6.23,17.87-2.09,6.24-4.12,12.07-6.1,17.48-1.98,5.41-3.85,9.83-5.64,13.29-1.78,3.45-3.4,5.18-4.85,5.18-1.1,0-2-1.82-2.7-5.44-.7-3.63-1.2-8.01-1.48-13.15-.29-5.15-.43-9.98-.43-14.51,0-9.5.73-18.33,2.18-26.51,1.49-8.54,2.95-13.48,4.36-14.85.92-.79,1.39-1.42,1.39-1.91,0-.53-.84-1.34-2.51-2.44-4.44-2.91-8.53-4.36-12.27-4.36l-.73-.07c-.39,0-.88.1-1.45.26-.57.18-1.24.8-2.01,1.85-.77,1.05-1.45,2.8-2.05,5.24-.59,2.44-1.09,5.84-1.48,10.19-.39,4.36-.59,10.01-.59,16.96,0,12.05,1.28,22.72,3.85,32.02,2.57,9.3,5.82,16.58,9.76,21.83,3.93,5.25,7.9,7.89,11.91,7.89,2.24,0,4.31-1.35,6.23-4.06,1.91-2.7,3.71-6.1,5.41-10.19,1.69-4.09,3.29-8.29,4.79-12.59,1.8-5.28,3.56-9.83,5.28-13.65,1.71-3.83,3.42-5.74,5.15-5.74s2.7,4.79,2.7,14.38c0,7.38-.45,13.58-1.33,18.6-4.57,4.27-8.92,8.22-13.06,11.87-15.74,13.5-23.79,22.78-24.14,27.84l-.26,4.21c0,6.3,4.81,13.64,14.44,22.03,2.41,2.12,4.44,3.17,6.07,3.17,3.92,0,7.63-2.75,11.14-8.25,3.52-5.5,6.53-12.59,9.04-21.28,2.51-8.68,4.27-17.97,5.28-27.86.08-.76,1.78-1.4,2.36-1.74,11.44-11.26,17.64-21.79,22.67-37.12.48-1.54.99-3.07,1.56-4.58.1-.26.19-.51.29-.77,1.98-5.18,4.35-10.14,7.02-15.02.03-.06.05-.11.08-.17-.03.06-.05.12-.08.18.13-.2.26-.4.39-.6,1.72-2.63,3.44-5.25,5.65-7.53,7.51-7.75,16.48-11.94,27.47-11.21,8.22.54,15.75,3.12,22.84,7.25,2.94,1.71,5.65,3.71,8.2,5.93.58.51,1.22.97,1.65,1.83-2.58-.99-5.01-2.01-7.5-2.87-11.75-4.05-23.66-6.03-35.99-2.9-6.56,1.67-12.02,5.15-16.63,10.03-.23.25-.41.47-.5.72-.17.4-.11.83.33,1.4,7.54,10.08,17.76,15.03,30.15,15.95,7.49.55,14.69-1.17,21.91-2.72,7.89-1.69,15.81-3.13,23.93-2.61,2.12.13,4.23.29,6.41.44-.52-3.3-2.1-6.15-3.48-9.01ZM868.27,830.82c-2.6,5.89-4.96,9.83-7.1,11.8-2.13,1.98-3.9,2.97-5.3,2.97-1.33,0-2.62-.59-3.9-1.78-1.41-1.49-2.11-3.12-2.11-4.87,0-3.92,3.52-9.11,10.55-15.57,4.49-4.05,9.5-8.2,15.04-12.47-2.2,7.38-4.6,14.03-7.19,19.92ZM917.4,738.18c-.3-.09-.59-.25-.89-.44.3.17.59.34.89.43.58.17,1.16.38,1.74.6-.58-.21-1.16-.42-1.74-.59Z"/>
      </g>
      <g>
        <path class="cls-2" d="M889.33,617.43c-3.15-3.03-5.55-5.29-7.19-6.81l-19.48,19.48c2.52,2.27,5.96,5.64,10.31,10.12,4.35,4.48,6.15,8.73,5.39,12.77,0,.13.06.25.19.38.12.13.25.13.38,0l17.4-17.59c2.27-2.52,2.46-5.45.57-8.79-1.89-3.34-4.42-6.53-7.57-9.55Z"/>
        <path class="cls-2" d="M262.81,631.93c-3.15-3.02-5.61-5.36-7.37-6.99l-17.11,17.29c-.11-.25-.24-.49-.38-.75-1.83-3.34-4.32-6.51-7.47-9.55-3.16-3.02-5.61-5.36-7.37-6.99l-19.48,19.48c2.64,2.27,6.1,5.67,10.39,10.22,4.29,4.53,6.05,8.76,5.31,12.66,0,.25.05.38.17.38.13.13.25.13.38,0l17.59-17.59v.19c.83-.98,1.37-2.02,1.59-3.13,2.07,2,4.54,4.5,7.41,7.48,4.34,4.53,6.13,8.76,5.39,12.66-.13.25-.13.38,0,.38.13.13.25.13.38,0l17.58-17.59v.19c2.15-2.53,2.3-5.45.48-8.8-1.83-3.34-4.32-6.51-7.47-9.55Z"/>
        <path class="cls-2" d="M967.91,459.79c4.35,4.48,6.15,8.73,5.39,12.77,0,.13.06.25.19.38.12.13.25.13.38,0l17.4-17.59c2.27-2.52,2.46-5.45.57-8.79-1.89-3.34-4.42-6.53-7.57-9.55-3.15-3.03-5.55-5.29-7.19-6.81l-19.48,19.48c2.52,2.27,5.96,5.64,10.31,10.12Z"/>
        <path class="cls-2" d="M772.78,459.79c4.35,4.48,6.15,8.73,5.39,12.77,0,.13.06.25.19.38.12.13.25.13.38,0l17.4-17.59c2.27-2.52,2.46-5.45.57-8.79-1.89-3.34-4.42-6.53-7.57-9.55-3.15-3.03-5.55-5.29-7.19-6.81l-19.48,19.48c2.52,2.27,5.96,5.64,10.31,10.12Z"/>
        <path class="cls-2" d="M737.26,459.79c4.35,4.48,6.15,8.73,5.39,12.77,0,.13.06.25.19.38.12.13.25.13.38,0l17.4-17.59c2.27-2.52,2.46-5.45.57-8.79-1.89-3.34-4.42-6.53-7.57-9.55-3.15-3.03-5.55-5.29-7.19-6.81l-19.48,19.48c2.52,2.27,5.96,5.64,10.31,10.12Z"/>
        <path class="cls-2" d="M683.32,459.79c4.35,4.48,6.15,8.73,5.39,12.77,0,.13.06.25.19.38.12.13.25.13.38,0l17.4-17.59c2.27-2.52,2.46-5.45.57-8.79-1.89-3.34-4.42-6.53-7.57-9.55-3.15-3.03-5.55-5.29-7.19-6.81l-19.48,19.48c2.52,2.27,5.96,5.64,10.31,10.12Z"/>
        <path class="cls-2" d="M647.79,459.79c4.35,4.48,6.15,8.73,5.39,12.77,0,.13.06.25.19.38.12.13.25.13.38,0l17.4-17.59c2.27-2.52,2.46-5.45.57-8.79-1.89-3.34-4.42-6.53-7.57-9.55-3.15-3.03-5.55-5.29-7.19-6.81l-19.48,19.48c2.52,2.27,5.96,5.64,10.31,10.12Z"/>
        <path class="cls-2" d="M1028.09,479.41h-33.17c-6.07-.54-11,5.55-14.78,18.26-3.8,12.7-6.36,35.41-7.69,68.14-9.9-5.8-20.59-8.84-32.1-9.11l-15.97.06h-.51c.21-.81.38-1.61.51-2.4.08-.4.14-.78.19-1.16,1.45-10.41-.51-19.67-5.86-27.79-5.36-8.14-11.89-15.33-19.58-21.56-7.69-6.24-14.27-11.76-19.75-16.56-5.5-4.78-7.68-9.14-6.53-13.05.13-.13.13-.25,0-.38h-.38l-23.65,23.65c-3.66,4.16-2.64,8.85,3.04,14.1,5.67,5.23,12.89,11.38,21.66,18.43,8.76,7.07,15.81,15.29,21.18,24.68.08.14.16.3.25.44.4.73.78,1.48,1.11,2.23,2.21,4.77,3.23,9.9,3.05,15.41-.02.75-.05,1.49-.13,2.26-.11,1.57-.33,3.16-.65,4.8-.46,2.43-1.14,4.93-2.03,7.48h-.02c-3.7-3.94-7.12-7.25-10.23-9.93-1.81-1.54-4.12-2.35-6.48-2.35h-49.09c-3.29-.05-8.69-.05-14.32,0-.87,0-1.76,0-2.64.02,0,0,0-.02.02-.02,5.66-7.87,8.96-15.14,9.9-21.85,1.45-10.41-.51-19.67-5.86-27.79-5.36-8.14-11.89-15.33-19.58-21.56-7.69-6.24-14.29-11.76-19.77-16.56-5.48-4.78-7.66-9.14-6.52-13.05.11-.13.11-.25,0-.38h-.38l-23.65,23.65c-3.66,4.16-2.64,8.85,3.04,14.1,5.67,5.23,12.89,11.38,21.64,18.43,8.77,7.07,15.83,15.29,21.18,24.68,3.51,6.13,4.94,12.92,4.31,20.34,0,.11,0,.22-.02.33-.35,3.81-1.24,7.8-2.69,11.95-3.07-3.27-5.94-6.1-8.63-8.5-.54-.49-1.08-.97-1.61-1.41-1.81-1.56-4.12-2.37-6.5-2.37h-49.07c-3.1-.05-8.06-.05-13.35-.02,5.67-7.87,8.96-15.14,9.9-21.83,1.45-10.41-.51-19.67-5.86-27.81-5.36-8.14-11.89-15.32-19.58-21.56s-14.29-11.76-19.77-16.54c-5.48-4.8-7.66-9.15-6.52-13.06.11-.11.11-.24,0-.37h-.38l-23.65,23.63c-3.65,4.16-2.64,8.87,3.04,14.1s12.89,11.38,21.64,18.45c8.77,7.06,15.83,15.29,21.18,24.68,3.51,6.15,4.94,12.92,4.31,20.34,0,.08-.02.14-.02.22-.05.79-.14,1.59-.27,2.4-.46,3.12-1.26,6.34-2.42,9.66-2.99-3.19-5.8-5.97-8.42-8.33-.6-.54-1.21-1.08-1.8-1.57-1.8-1.54-4.08-2.38-6.45-2.38h-58.92c-3.85.08-6.88.25-9.14.56-2.24.29-4.17.89-5.82,1.79,7.67-8.31,10.37-18.16,8.1-29.55-2.27-11.41-7.09-22.44-14.46-33.1-7.37-10.65-14.95-18.94-22.71-24.87-7.75-5.93-13.33-7.56-16.73-4.91l-25.9,25.71c-11.98,12.49-19.09,23.96-21.28,34.44-2.21,10.46-1.33,19.72,2.64,27.79s9.17,14.65,15.61,19.77c6.44,5.1,12.3,8.41,17.59,9.93-25.09,15.75-50.44,23.98-76.04,24.68-25.58.68-50.8-2.91-75.64-10.79-24.84-7.88-48.67-16.8-71.49-26.76-18.8-8.06-36.47-14.87-53.06-20.42-16.57-5.55-31.77-8.1-45.58-7.66-13.81.44-25.95,5.7-36.41,15.8l-20.05,20.04v.38c.13.13.25.13.38,0,10.47-7.31,22.34-10.74,35.66-10.31,13.3.45,27.76,3.35,43.4,8.71,15.64,5.36,32.21,11.82,49.74,19.39,19.42,8.33,39.63,16.1,60.62,23.36,20.99,7.25,42.37,11.84,64.12,13.81,21.74,1.95,43.49-.67,65.25-7.85,21.74-7.2,43.08-21.07,64.01-41.62l25.73-25.9c-4.91-.13-11.41-2.97-19.48-8.52-8.07-5.55-14.43-13.33-19.1-23.36-4.66-10.03-4.35-21.77.95-35.26,7.06,2.89,15,9.49,23.82,19.75,8.84,10.28,15.57,21.79,20.25,34.52,4.53,12.62,3.91,23.96-1.89,34.06l-1.06,1.1-.13.13-2.78,2.78c-.06.06-.13.16-.14.27-.03.08-.05.16-.05.25h0s0,0,0,0l.59.02c1.14-.65,2.86-1.16,5.18-1.54h0c4.34-.72,10.74-.96,19.19-.7h284.82c3.69-3.66,7.82-7.74,12.39-12.28.17-.19.37-.37.54-.56,4.35-4.51,8.03-8.87,11.03-13.06,3.8-5.26,6.52-10.27,8.18-15,.24.08.46.16.7.25,13.06,4.48,24.2,12.16,33.39,23.01,9.36,11.06,14.27,23.76,14.72,38.12h36.65c-.02-50.64,1.68-86.5,5.07-107.54,3.38-21.04,8.34-32.32,14.86-33.83.08-.09.13-.22.13-.4-.1-.09-.17-.19-.27-.27Z"/>
      </g>
    </g>
  </g>
</svg>